<svg xmlns="http://www.w3.org/2000/svg" xmlns:xlink="http://www.w3.org/1999/xlink" width="1435" height="867" viewBox="0 0 1435 867">
  <defs>
    <filter id="Rectangle_158" x="-90" y="-87" width="1615" height="1047" filterUnits="userSpaceOnUse">
      <feOffset dy="3" input="SourceAlpha"/>
      <feGaussianBlur stdDeviation="30" result="blur"/>
      <feFlood flood-color="#f0eff3" flood-opacity="0"/>
      <feComposite operator="in" in2="blur"/>
      <feComposite in="SourceGraphic"/>
    </filter>
    <filter id="Rectangle_162" x="-90" y="-87" width="897" height="1047" filterUnits="userSpaceOnUse">
      <feOffset dy="3" input="SourceAlpha"/>
      <feGaussianBlur stdDeviation="30" result="blur-2"/>
      <feFlood flood-color="#f0eff3" flood-opacity="0"/>
      <feComposite operator="in" in2="blur-2"/>
      <feComposite in="SourceGraphic"/>
    </filter>
    <clipPath id="clip-Artboard_1">
      <rect width="1435" height="867"/>
    </clipPath>
  </defs>
  <g id="Artboard_1" data-name="Artboard – 1" clip-path="url(#clip-Artboard_1)">
    <g id="Group_516" data-name="Group 516" transform="translate(-243 -107)">
      <g transform="matrix(1, 0, 0, 1, 243, 107)" filter="url(#Rectangle_158)">
        <rect id="Rectangle_158-2" data-name="Rectangle 158" width="1435" height="867" rx="53" fill="#2e005a"/>
      </g>
      <g transform="matrix(1, 0, 0, 1, 243, 107)" filter="url(#Rectangle_162)">
        <path id="Rectangle_162-2" data-name="Rectangle 162" d="M53,0H717a0,0,0,0,1,0,0V867a0,0,0,0,1,0,0H53A53,53,0,0,1,0,814V53A53,53,0,0,1,53,0Z" fill="#2e005a"/>
      </g>
    </g>
  </g>
</svg>
