<svg xmlns="http://www.w3.org/2000/svg" xmlns:xlink="http://www.w3.org/1999/xlink" width="115" height="116" viewBox="0 0 115 116">
  <defs>
    <clipPath id="clip-Artboard_4">
      <rect width="115" height="116"/>
    </clipPath>
  </defs>
  <g id="Artboard_4" data-name="Artboard – 4" clip-path="url(#clip-Artboard_4)">
    <rect width="115" height="116" fill="#fff"/>
    <g id="game-controller" transform="matrix(1, -0.017, 0.017, 1, 8.527, 15.659)">
      <ellipse id="Ellipse_70" data-name="Ellipse 70" cx="57.36" cy="57.36" rx="57.36" ry="57.36" transform="translate(-8.589 -14.11)" fill="#3d2d77"/>
      <path id="Path_1658" data-name="Path 1658" d="M87.361,28.5a22.035,22.035,0,0,0-16-6.8h-23.2V15.65a5.745,5.745,0,0,0-5.738-5.738H38.511A3,3,0,0,1,35.519,6.92V1.373a1.373,1.373,0,1,0-2.746,0V6.92a5.745,5.745,0,0,0,5.738,5.738h3.913a3,3,0,0,1,2.992,2.992V21.7H32.064a1.373,1.373,0,1,0,0,2.746h39.3A19.472,19.472,0,0,1,72.1,63.372,15.4,15.4,0,0,0,56.334,56.3c-.373-.453-.73-.924-1.06-1.407a4.146,4.146,0,0,0-3.417-1.819H41.718a4.127,4.127,0,0,0-3.407,1.807A19.473,19.473,0,1,1,22.444,24.443h2.68a1.373,1.373,0,0,0,0-2.746h-2.68A22.373,22.373,0,0,0,0,43.836,22.219,22.219,0,0,0,40.579,56.427a1.383,1.383,0,0,1,1.14-.61H51.858a1.4,1.4,0,0,1,1.15.623c.149.218.3.433.461.646a15.44,15.44,0,1,0,13.6,27.578,1.373,1.373,0,1,0-1.44-2.338,12.689,12.689,0,1,1,4.236-4.277,1.373,1.373,0,0,0,2.352,1.417,15.434,15.434,0,0,0,1.2-13.427A22.219,22.219,0,0,0,87.361,28.5Z" transform="translate(0)" fill="#afa2e0" stroke="#afa2e0" stroke-width="1"/>
      <path id="Path_1659" data-name="Path 1659" d="M4.767,0A4.767,4.767,0,1,0,9.534,4.767,4.773,4.773,0,0,0,4.767,0Zm0,6.789A2.022,2.022,0,1,1,6.789,4.767,2.024,2.024,0,0,1,4.767,6.789Z" transform="translate(66.763 30.452)" fill="#afa2e0" stroke="#afa2e0" stroke-width="1"/>
      <path id="Path_1660" data-name="Path 1660" d="M4.767,0A4.767,4.767,0,1,0,9.534,4.767,4.773,4.773,0,0,0,4.767,0Zm0,6.789A2.022,2.022,0,1,1,6.789,4.767,2.024,2.024,0,0,1,4.767,6.789Z" transform="translate(66.763 47.606)" fill="#afa2e0" stroke="#afa2e0" stroke-width="1"/>
      <path id="Path_1661" data-name="Path 1661" d="M4.767,9.535A4.767,4.767,0,1,0,0,4.767,4.773,4.773,0,0,0,4.767,9.535Zm0-6.789A2.022,2.022,0,1,1,2.746,4.767,2.024,2.024,0,0,1,4.767,2.746Z" transform="translate(75.34 39.029)" fill="#afa2e0" stroke="#afa2e0" stroke-width="1"/>
      <path id="Path_1662" data-name="Path 1662" d="M4.767,0A4.767,4.767,0,1,0,9.535,4.767,4.773,4.773,0,0,0,4.767,0Zm0,6.789A2.022,2.022,0,1,1,6.789,4.767,2.024,2.024,0,0,1,4.767,6.789Z" transform="translate(58.186 39.029)" fill="#afa2e0" stroke="#afa2e0" stroke-width="1"/>
      <path id="Path_1663" data-name="Path 1663" d="M12.877.007A4.874,4.874,0,0,0,7.85,4.855v3H4.932A4.875,4.875,0,0,0,0,12.532a1.373,1.373,0,1,0,2.744.1A2.166,2.166,0,0,1,4.932,10.6H8.49A2.108,2.108,0,0,0,10.6,8.5V4.855a2.115,2.115,0,0,1,2.183-2.1,2.167,2.167,0,0,1,2.027,2.187V8.5A2.108,2.108,0,0,0,16.911,10.6H20.47a2.166,2.166,0,0,1,2.187,2.027,2.115,2.115,0,0,1-2.1,2.183H16.911a2.108,2.108,0,0,0-2.105,2.105V20.56a2.116,2.116,0,0,1-2.183,2.1A2.167,2.167,0,0,1,10.6,20.476V16.918A2.108,2.108,0,0,0,8.49,14.813H7.037a1.373,1.373,0,0,0,0,2.746H7.85v2.918a4.851,4.851,0,1,0,9.7.083v-3h3a4.851,4.851,0,1,0-.083-9.7H17.552V4.939A4.876,4.876,0,0,0,12.877.007Z" transform="translate(9.215 30.807)" fill="#afa2e0" stroke="#afa2e0" stroke-width="1"/>
      <path id="Path_1664" data-name="Path 1664" d="M7.1,14.209a1.373,1.373,0,0,0,1.373-1.373V8.478h4.359a1.373,1.373,0,0,0,0-2.746H8.477V1.373a1.373,1.373,0,0,0-2.746,0V5.732H1.373a1.373,1.373,0,1,0,0,2.746H5.732v4.359A1.373,1.373,0,0,0,7.1,14.209Z" transform="translate(51.878 64.442)" fill="#e80766" stroke="#e80766" stroke-width="1"/>
    </g>
  </g>
</svg>
