<svg xmlns="http://www.w3.org/2000/svg" xmlns:xlink="http://www.w3.org/1999/xlink" width="113" height="113" viewBox="0 0 113 113">
  <defs>
    <clipPath id="clip-Artboard_3">
      <rect width="113" height="113"/>
    </clipPath>
  </defs>
  <g id="Artboard_3" data-name="Artboard – 3" clip-path="url(#clip-Artboard_3)">
    <rect width="113" height="113" fill="#fff"/>
    <g id="podium" transform="matrix(1, -0.017, 0.017, 1, 20.547, 8.387)">
      <circle id="Ellipse_72" data-name="Ellipse 72" cx="55.5" cy="55.5" r="55.5" transform="translate(-20.182 -7.123)" fill="#3d2d77"/>
      <g id="Group_298" data-name="Group 298" transform="translate(0 0)">
        <path id="Path_1646" data-name="Path 1646" d="M103.5,265.172H85.389v-8.231A4.944,4.944,0,0,0,80.451,252H63.988a4.944,4.944,0,0,0-4.939,4.939v1.646H40.941A4.944,4.944,0,0,0,36,263.526v29.633a1.646,1.646,0,0,0,1.646,1.646h69.142a1.646,1.646,0,0,0,1.646-1.646V270.111A4.944,4.944,0,0,0,103.5,265.172Zm-21.4,26.34H62.342V287.4a1.646,1.646,0,0,0-3.292,0v4.116H39.295V263.526a1.648,1.648,0,0,1,1.646-1.646H59.049v10.7a1.646,1.646,0,0,0,3.292,0V256.941a1.648,1.648,0,0,1,1.646-1.646H80.451a1.648,1.648,0,0,1,1.646,1.646Zm23.047,0H85.389V268.465H103.5a1.648,1.648,0,0,1,1.646,1.646Z" transform="translate(-36.002 -210.516)" fill="#afa2e0"/>
        <path id="Path_1647" data-name="Path 1647" d="M375.059,376.942a4.92,4.92,0,0,0-8.664-3.211,1.646,1.646,0,1,0,2.5,2.138,1.638,1.638,0,1,1,2.375,2.252,1.646,1.646,0,0,0,.229,2.534,2.473,2.473,0,0,1-1.368,4.519,2.414,2.414,0,0,1-1.485-.5,1.646,1.646,0,1,0-2.008,2.61,5.679,5.679,0,0,0,3.492,1.188,5.766,5.766,0,0,0,4.45-9.4A4.932,4.932,0,0,0,375.059,376.942Z" transform="translate(-311.675 -310.762)" fill="#afa2e0"/>
        <path id="Path_1648" data-name="Path 1648" d="M94.234,345.158H90.267c.363-.333.817-.69,1.347-1.1,1.883-1.453,4.226-3.261,4.266-6.666a5.275,5.275,0,0,0-3.89-5.253,4.79,4.79,0,0,0-5.509,2.572,1.646,1.646,0,0,0,2.909,1.543,1.5,1.5,0,0,1,1.786-.924,1.966,1.966,0,0,1,1.411,2.024c-.02,1.689-1.141,2.675-2.985,4.1-1.687,1.3-3.6,2.778-3.6,5.352a1.646,1.646,0,0,0,1.646,1.646h6.584a1.646,1.646,0,0,0,0-3.293Z" transform="translate(-77.772 -277.332)" fill="#afa2e0"/>
        <path id="Path_1649" data-name="Path 1649" d="M240.21,305.173h-.179V293.649a1.646,1.646,0,0,0-2.469-1.426l-1.825,1.054a1.646,1.646,0,0,0,1,3.063v8.833h-.179a1.646,1.646,0,1,0,0,3.292h3.65a1.646,1.646,0,1,0,0-3.292Z" transform="translate(-202.168 -243.932)" fill="#afa2e0"/>
        <path id="Path_1650" data-name="Path 1650" d="M159.914,40.919l-.825,6.292a4.226,4.226,0,0,0,.356,2.661,4.266,4.266,0,0,0,5.7,1.968l5.787-2.817,5.946,2.833a4.265,4.265,0,0,0,6.057-4.437l-.892-6.381,4.393-4.634a4.266,4.266,0,0,0-2.215-7.28L177.881,28l-3.144-5.783h0a4.258,4.258,0,0,0-7.5.033l-3.028,5.684-6.37,1.184a4.261,4.261,0,0,0-2.4,7.163Zm-2.075-8.292a.96.96,0,0,1,.525-.26l.056-.009,7.174-1.333a1.646,1.646,0,0,0,1.152-.845l3.4-6.383a.965.965,0,0,1,1.7-.008l3.522,6.479a1.646,1.646,0,0,0,1.159.835l7.126,1.262a.973.973,0,0,1,.5,1.669q-.037.034-.072.071l-4.969,5.241a1.646,1.646,0,0,0-.436,1.36l1,7.164a.976.976,0,0,1-1.378,1.012l-6.663-3.174a1.646,1.646,0,0,0-1.428.006l-6.5,3.164a.974.974,0,0,1-1.3-.449.963.963,0,0,1-.079-.621q.012-.059.02-.118l.935-7.131a1.646,1.646,0,0,0-.447-1.357L157.813,34a.968.968,0,0,1,.026-1.368Z" transform="translate(-134.783 -16.701)" fill="#e80766"/>
        <path id="Path_1651" data-name="Path 1651" d="M95.324,3.072l6.5,3.752a1.646,1.646,0,0,0,1.646-2.851L96.97.221a1.646,1.646,0,1,0-1.646,2.851Z" transform="translate(-84.87 0)" fill="#afa2e0"/>
        <path id="Path_1652" data-name="Path 1652" d="M62.3,116.356a1.688,1.688,0,0,0,.239-.017l7.425-1.08A1.646,1.646,0,0,0,69.491,112l-7.425,1.08a1.646,1.646,0,0,0,.235,3.276Z" transform="translate(-56.598 -93.548)" fill="#afa2e0"/>
        <path id="Path_1653" data-name="Path 1653" d="M109.983,196.95l-5.306,5.306a1.646,1.646,0,1,0,2.328,2.328l5.306-5.306a1.646,1.646,0,0,0-2.328-2.328Z" transform="translate(-92.969 -164.124)" fill="#afa2e0"/>
        <path id="Path_1654" data-name="Path 1654" d="M359.675,7.045a1.64,1.64,0,0,0,.822-.221L367,3.072A1.646,1.646,0,1,0,365.349.221l-6.5,3.752a1.646,1.646,0,0,0,.825,3.072Z" transform="translate(-305.014 0)" fill="#afa2e0"/>
        <path id="Path_1655" data-name="Path 1655" d="M386.257,113.392a1.646,1.646,0,0,0,1.392,1.866l7.425,1.08a1.646,1.646,0,0,0,.474-3.258L388.123,112a1.647,1.647,0,0,0-1.866,1.392Z" transform="translate(-328.582 -93.547)" fill="#afa2e0"/>
        <path id="Path_1656" data-name="Path 1656" d="M356.06,196.95a1.647,1.647,0,0,0,0,2.328l5.306,5.306a1.646,1.646,0,1,0,2.328-2.328l-5.306-5.306A1.646,1.646,0,0,0,356.06,196.95Z" transform="translate(-302.968 -164.125)" fill="#afa2e0"/>
        <path id="Path_1657" data-name="Path 1657" d="M177.648,412a1.646,1.646,0,1,0,1.646,1.647h0A1.646,1.646,0,0,0,177.648,412Z" transform="translate(-152.955 -344.175)" fill="#afa2e0"/>
      </g>
    </g>
  </g>
</svg>
