<svg xmlns="http://www.w3.org/2000/svg" width="53.819" height="53.797" viewBox="0 0 53.819 53.797">
  <g id="call" transform="translate(0 -0.104)">
    <g id="Group_449" data-name="Group 449" transform="translate(0 0.104)">
      <g id="Group_448" data-name="Group 448" transform="translate(0 0)">
        <path id="Path_3134" data-name="Path 3134" d="M52.436,41.917,43.518,33a4.726,4.726,0,0,0-6.688,0L34.6,35.229a4.737,4.737,0,0,1-6.7-.007L18.57,26.009a4.734,4.734,0,0,1,0-6.688L20.8,17.092a4.734,4.734,0,0,0,0-6.688L11.882,1.487a4.734,4.734,0,0,0-6.688,0L2.965,3.716C.072,6.61-.779,12.989.744,20.365A43.254,43.254,0,0,0,12.309,41.917a41.89,41.89,0,0,0,21.42,11.355c5.12.989,12.816,1.223,16.477-2.438L52.436,48.6A4.735,4.735,0,0,0,52.436,41.917ZM7.424,3.716a1.578,1.578,0,0,1,2.229,0l8.917,8.917a1.578,1.578,0,0,1,0,2.229l-1.109,1.109L6.315,4.826Zm26.9,46.46A38.7,38.7,0,0,1,14.538,39.688,40.063,40.063,0,0,1,3.832,19.728c-1.192-5.77-.7-10.106.462-12.465L15.343,18.312a7.9,7.9,0,0,0,1.005,9.933l9.336,9.213a7.894,7.894,0,0,0,9.926,1L46.669,49.515C43.3,51.224,38.059,50.9,34.327,50.177Zm15.88-3.8L49.1,47.485,37.951,36.338l1.109-1.109a1.575,1.575,0,0,1,2.229,0l8.917,8.917A1.578,1.578,0,0,1,50.206,46.375Z" transform="translate(0 -0.104)" fill="#e80766"/>
      </g>
    </g>
    <g id="Group_451" data-name="Group 451" transform="translate(28.595 0.105)">
      <g id="Group_450" data-name="Group 450" transform="translate(0 0)">
        <path id="Path_3135" data-name="Path 3135" d="M273.613.115a1.576,1.576,0,0,0,0,3.153A20.515,20.515,0,0,1,294.105,23.76a1.576,1.576,0,1,0,3.153,0A23.672,23.672,0,0,0,273.613.115Z" transform="translate(-272.037 -0.115)" fill="#e80766"/>
      </g>
    </g>
    <g id="Group_453" data-name="Group 453" transform="translate(28.595 6.411)">
      <g id="Group_452" data-name="Group 452">
        <path id="Path_3136" data-name="Path 3136" d="M273.613,60.1a1.576,1.576,0,0,0,0,3.153A14.2,14.2,0,0,1,287.8,77.439a1.576,1.576,0,0,0,3.153,0A17.359,17.359,0,0,0,273.613,60.1Z" transform="translate(-272.037 -60.1)" fill="#e80766"/>
      </g>
    </g>
    <g id="Group_455" data-name="Group 455" transform="translate(28.595 12.716)">
      <g id="Group_454" data-name="Group 454">
        <path id="Path_3137" data-name="Path 3137" d="M273.613,120.085a1.576,1.576,0,1,0,0,3.153,7.89,7.89,0,0,1,7.882,7.882,1.576,1.576,0,1,0,3.153,0A11.047,11.047,0,0,0,273.613,120.085Z" transform="translate(-272.037 -120.085)" fill="#e80766"/>
      </g>
    </g>
    <g id="Group_457" data-name="Group 457" transform="translate(28.595 19.021)">
      <g id="Group_456" data-name="Group 456">
        <path id="Path_3138" data-name="Path 3138" d="M273.613,180.07a1.576,1.576,0,1,0,0,3.153,1.578,1.578,0,0,1,1.576,1.576,1.576,1.576,0,0,0,3.153,0A4.734,4.734,0,0,0,273.613,180.07Z" transform="translate(-272.037 -180.07)" fill="#e80766"/>
      </g>
    </g>
  </g>
</svg>
