<svg id="facebook-logo-in-circular-button-outlined-social-symbol" xmlns="http://www.w3.org/2000/svg" width="40" height="40" viewBox="0 0 67.484 63.667">
  <g id="Group_8" data-name="Group 8">
    <g id="SOCIAL" transform="translate(3.144 1.159)">
      <ellipse id="Ellipse_24" data-name="Ellipse 24" cx="32" cy="31.5" rx="32" ry="31.5" transform="translate(0.34 -0.492)" fill="#e80766"/>
    </g>
    <path id="Path_58" data-name="Path 58" d="M63.631,31.815A31.815,31.815,0,1,0,31.815,63.631,31.816,31.816,0,0,0,63.631,31.815Zm-60.738,0A28.923,28.923,0,1,1,31.815,60.738,28.922,28.922,0,0,1,2.892,31.815Z" fill="#fff"/>
    <path id="Path_59" data-name="Path 59" d="M14.5,39.427V21.064h6.059l.957-6.085H14.5V11.927c0-1.588.521-3.1,2.8-3.1h4.555V2.75H15.392c-5.438,0-6.921,3.581-6.921,8.544v3.682H4.74v6.088H8.471V39.427Z" transform="translate(18.532 10.752)" fill="#fff"/>
  </g>
</svg>
