<svg xmlns="http://www.w3.org/2000/svg" width="1674.031" height="1001.667" viewBox="0 0 1674.031 1001.667">
  <g id="FOOTER" transform="translate(-1231.424 -11010.941)">
    <g id="COPYRIGHT" transform="translate(1231.424 11939.608)">
      <rect id="Rectangle_71" data-name="Rectangle 71" width="89" height="5" transform="translate(65 68)" fill="#e80766" opacity="0.6"/>
      <text id="Copyright_2018" data-name="Copyright © 2018" transform="translate(100 26)" fill="#fff" font-size="24" font-family="SegoeUI, Segoe UI" letter-spacing="0.025em"><tspan x="-99.955" y="0">Copyright © 2018</tspan></text>
    </g>
    <g id="SOCIAL" transform="translate(2524.084 11012.101)">
      <ellipse id="Ellipse_24" data-name="Ellipse 24" cx="32" cy="31.5" rx="32" ry="31.5" transform="translate(0.34 -0.492)" fill="#e80766"/>
    </g>
    <g id="Group_13" data-name="Group 13" transform="translate(2520.94 11010.941)">
      <g id="google-plus-circular-button" transform="translate(325.1 4.305)" opacity="0.8">
        <g id="Group_11" data-name="Group 11">
          <path id="Path_64" data-name="Path 64" d="M23.173,27.438c0-2.914-1.688-4.351-3.546-5.914l-1.52-1.183a2.311,2.311,0,0,1-1.1-1.815,2.97,2.97,0,0,1,1.183-2.069c1.772-1.394,3.546-2.871,3.546-6a7.119,7.119,0,0,0-3-5.7h2.617l2.7-1.52h-8.7A11.512,11.512,0,0,0,7.8,5.562,7.591,7.591,0,0,0,5.1,11.22a6.677,6.677,0,0,0,7.008,6.63c.424,0,.886-.043,1.353-.084a3.792,3.792,0,0,0-.421,1.647,4.432,4.432,0,0,0,1.267,2.871c-1.9.127-5.447.338-8.064,1.942a6.079,6.079,0,0,0-3.252,5.153c0,3.125,2.957,6.039,9.08,6.039C19.33,35.418,23.173,31.4,23.173,27.438ZM14.094,16.67c-3.632,0-5.28-4.688-5.28-7.516A4.872,4.872,0,0,1,9.743,6.03a3.948,3.948,0,0,1,2.957-1.4c3.505,0,5.32,4.732,5.32,7.77a4.265,4.265,0,0,1-1.056,3.084A4.332,4.332,0,0,1,14.094,16.67Zm.043,16.973c-4.518,0-7.432-2.152-7.432-5.15s2.7-4.011,3.632-4.348a16.928,16.928,0,0,1,4.434-.678,6.679,6.679,0,0,1,.97.043c3.211,2.279,4.6,3.419,4.6,5.574C20.343,31.7,18.19,33.644,14.137,33.644Z" transform="translate(10.723 11.614)" fill="#fff"/>
          <path id="Path_65" data-name="Path 65" d="M7.476,12.088h4.572v4.569h2.285V12.088H18.9V9.8h-4.57V5.234H12.049V9.8H7.476Z" transform="translate(26.8 18.761)" fill="#fff"/>
          <path id="Path_66" data-name="Path 66" d="M59.414,29.707A29.707,29.707,0,1,0,29.707,59.414,29.707,29.707,0,0,0,59.414,29.707Zm-56.713,0A27.006,27.006,0,1,1,29.707,56.713,27.006,27.006,0,0,1,2.7,29.707Z" fill="#fff"/>
        </g>
      </g>
      <g id="pinterest-social-visual-website-logotype" transform="translate(217.436 4.305)" opacity="0.8">
        <g id="Group_10" data-name="Group 10" transform="translate(0 0)">
          <path id="Path_62" data-name="Path 62" d="M30.909,14.641c0-6.16-5.112-11.9-12.879-11.9-9.668,0-14.54,7.076-14.54,12.977,0,3.573,1.323,6.752,4.167,7.934a.7.7,0,0,0,1.018-.519c.092-.365.316-1.285.413-1.666A1.022,1.022,0,0,0,8.8,20.309a6.073,6.073,0,0,1-1.342-4.075A9.735,9.735,0,0,1,17.471,6.287c5.463,0,8.467,3.408,8.467,7.959,0,5.99-2.6,11.043-6.452,11.043a3.194,3.194,0,0,1-3.211-4c.61-2.63,1.8-5.472,1.8-7.37,0-1.7-.894-3.119-2.744-3.119-2.177,0-3.924,2.3-3.924,5.377a8.107,8.107,0,0,0,.651,3.287S9.825,29.1,9.436,30.782a18.528,18.528,0,0,0-.359,4.651c.149,1.28,1.388,2.323,2.463.918A17.412,17.412,0,0,0,13.531,32c.251-.924,1.431-5.709,1.431-5.709a5.8,5.8,0,0,0,4.972,2.59C26.472,28.876,30.909,22.788,30.909,14.641Z" transform="translate(12.509 9.827)" fill="#fff"/>
          <path id="Path_63" data-name="Path 63" d="M59.414,29.707A29.707,29.707,0,1,0,29.707,59.414,29.707,29.707,0,0,0,59.414,29.707Zm-56.713,0A27.006,27.006,0,1,1,29.707,56.713,27.006,27.006,0,0,1,2.7,29.707Z" transform="translate(0 0)" fill="#fff"/>
        </g>
      </g>
      <g id="twitter-circular-button" transform="translate(111.969 4.305)" opacity="0.8">
        <g id="Group_9" data-name="Group 9">
          <path id="Path_60" data-name="Path 60" d="M31.724,11.295c0-.3-.005-.6-.019-.891a13.494,13.494,0,0,0,3.276-3.522,12.577,12.577,0,0,1-3.77,1.032A6.737,6.737,0,0,0,34.1,4.143,12.606,12.606,0,0,1,29.93,5.75a6.53,6.53,0,0,0-4.791-2.26,6.632,6.632,0,0,0-6.563,6.841,7.294,7.294,0,0,0,.17,1.585A18.482,18.482,0,0,1,5.217,4.44a7.268,7.268,0,0,0-.888,3.511,7.229,7.229,0,0,0,2.919,5.866,6.282,6.282,0,0,1-2.973-.91V13A6.972,6.972,0,0,0,9.54,19.9a6.216,6.216,0,0,1-1.728.235A6,6,0,0,1,6.578,20a6.671,6.671,0,0,0,6.13,4.885,12.668,12.668,0,0,1-8.151,2.968,12.5,12.5,0,0,1-1.566-.1,17.707,17.707,0,0,0,10.063,3.154C25.123,30.915,31.724,20.409,31.724,11.295Z" transform="translate(10.722 12.506)" fill="#fff"/>
          <path id="Path_61" data-name="Path 61" d="M59.414,29.707A29.707,29.707,0,1,0,29.707,59.414,29.707,29.707,0,0,0,59.414,29.707Zm-56.713,0A27.006,27.006,0,1,1,29.707,56.713,27.006,27.006,0,0,1,2.7,29.707Z" fill="#fff"/>
        </g>
      </g>
      <g id="facebook-logo-in-circular-button-outlined-social-symbol" transform="translate(0 0)">
        <g id="Group_8" data-name="Group 8">
          <path id="Path_58" data-name="Path 58" d="M63.631,31.815A31.815,31.815,0,1,0,31.815,63.631,31.816,31.816,0,0,0,63.631,31.815Zm-60.738,0A28.923,28.923,0,1,1,31.815,60.738,28.922,28.922,0,0,1,2.892,31.815Z" fill="#fff"/>
          <path id="Path_59" data-name="Path 59" d="M14.5,39.427V21.064h6.059l.957-6.085H14.5V11.927c0-1.588.521-3.1,2.8-3.1h4.555V2.75H15.392c-5.438,0-6.921,3.581-6.921,8.544v3.682H4.74v6.088H8.471V39.427Z" transform="translate(18.532 10.752)" fill="#fff"/>
        </g>
      </g>
    </g>
  </g>
</svg>
