<svg xmlns="http://www.w3.org/2000/svg" width="50" height="61.802" viewBox="0 0 50 61.802">
  <g id="place_1_" data-name="place (1)" transform="translate(-48.886)">
    <g id="Group_459" data-name="Group 459" transform="translate(48.886)">
      <g id="Group_458" data-name="Group 458">
        <path id="Path_3139" data-name="Path 3139" d="M94.4,10.745a24.953,24.953,0,0,0-41.027,0,24.957,24.957,0,0,0-2.906,22.994A19.655,19.655,0,0,0,54.09,39.72L72.241,61.041a2.159,2.159,0,0,0,3.29,0L93.678,39.726A19.674,19.674,0,0,0,97.3,33.753,24.962,24.962,0,0,0,94.4,10.745ZM93.253,32.24a15.415,15.415,0,0,1-2.85,4.669.077.077,0,0,0-.01.012L73.887,56.308,57.37,36.908a15.424,15.424,0,0,1-2.855-4.683A20.644,20.644,0,0,1,56.928,13.2a20.631,20.631,0,0,1,33.917,0A20.648,20.648,0,0,1,93.253,32.24Z" transform="translate(-48.886)" fill="#e80766"/>
      </g>
    </g>
    <g id="Group_461" data-name="Group 461" transform="translate(61.785 12.821)">
      <g id="Group_460" data-name="Group 460">
        <path id="Path_3140" data-name="Path 3140" d="M167.855,106.219a12.1,12.1,0,1,0,12.1,12.1A12.115,12.115,0,0,0,167.855,106.219Zm0,19.88a7.779,7.779,0,1,1,7.779-7.779A7.788,7.788,0,0,1,167.855,126.1Z" transform="translate(-155.754 -106.219)" fill="#e80766"/>
      </g>
    </g>
  </g>
</svg>
