<svg xmlns="http://www.w3.org/2000/svg" width="59.414" height="59.414" viewBox="0 0 59.414 59.414">
  <g id="google-plus-circular-button" opacity="0.8">
    <g id="Group_11" data-name="Group 11">
      <path id="Path_64" data-name="Path 64" d="M23.173,27.438c0-2.914-1.688-4.351-3.546-5.914l-1.52-1.183a2.311,2.311,0,0,1-1.1-1.815,2.97,2.97,0,0,1,1.183-2.069c1.772-1.394,3.546-2.871,3.546-6a7.119,7.119,0,0,0-3-5.7h2.617l2.7-1.52h-8.7A11.512,11.512,0,0,0,7.8,5.562,7.591,7.591,0,0,0,5.1,11.22a6.677,6.677,0,0,0,7.008,6.63c.424,0,.886-.043,1.353-.084a3.792,3.792,0,0,0-.421,1.647,4.432,4.432,0,0,0,1.267,2.871c-1.9.127-5.447.338-8.064,1.942a6.079,6.079,0,0,0-3.252,5.153c0,3.125,2.957,6.039,9.08,6.039C19.33,35.418,23.173,31.4,23.173,27.438ZM14.094,16.67c-3.632,0-5.28-4.688-5.28-7.516A4.872,4.872,0,0,1,9.743,6.03a3.948,3.948,0,0,1,2.957-1.4c3.505,0,5.32,4.732,5.32,7.77a4.265,4.265,0,0,1-1.056,3.084A4.332,4.332,0,0,1,14.094,16.67Zm.043,16.973c-4.518,0-7.432-2.152-7.432-5.15s2.7-4.011,3.632-4.348a16.928,16.928,0,0,1,4.434-.678,6.679,6.679,0,0,1,.97.043c3.211,2.279,4.6,3.419,4.6,5.574C20.343,31.7,18.19,33.644,14.137,33.644Z" transform="translate(10.723 11.614)" fill="#fff"/>
      <path id="Path_65" data-name="Path 65" d="M7.476,12.088h4.572v4.569h2.285V12.088H18.9V9.8h-4.57V5.234H12.049V9.8H7.476Z" transform="translate(26.8 18.761)" fill="#fff"/>
      <path id="Path_66" data-name="Path 66" d="M59.414,29.707A29.707,29.707,0,1,0,29.707,59.414,29.707,29.707,0,0,0,59.414,29.707Zm-56.713,0A27.006,27.006,0,1,1,29.707,56.713,27.006,27.006,0,0,1,2.7,29.707Z" fill="#fff"/>
    </g>
  </g>
</svg>
