<svg xmlns="http://www.w3.org/2000/svg" xmlns:xlink="http://www.w3.org/1999/xlink" width="798.885" height="826.244" viewBox="0 0 798.885 826.244">
  <defs>
    <clipPath id="clip-path">
      <path id="Path_3133" data-name="Path 3133" d="M317.247,40.444s-170.226-7.4-331.485,93.271-198.068,249.067-161.9,377.7,291.5,341.263,507.308,316.37S575.105,534.046,517.367,386.437,494.282,47.847,317.247,40.444Z" transform="translate(188.885 -40.322)" fill="none"/>
    </clipPath>
    <linearGradient id="linear-gradient" x1="0.482" y1="-0.008" x2="0.504" y2="0.662" gradientUnits="objectBoundingBox">
      <stop offset="0" stop-color="#2b2451"/>
      <stop offset="0.994" stop-color="#090628"/>
    </linearGradient>
    <linearGradient id="linear-gradient-2" x1="0.522" y1="0.972" x2="0.49" y2="-0.174" gradientUnits="objectBoundingBox">
      <stop offset="0" stop-color="#ff9700"/>
      <stop offset="1" stop-color="#fa0"/>
    </linearGradient>
    <linearGradient id="linear-gradient-3" x1="0.676" y1="-0.147" x2="0.302" y2="0.929" gradientUnits="objectBoundingBox">
      <stop offset="0" stop-color="#f98885"/>
      <stop offset="1" stop-color="#ffaca6"/>
    </linearGradient>
    <linearGradient id="linear-gradient-4" x1="1.138" y1="-0.146" x2="0.102" y2="0.983" xlink:href="#linear-gradient-3"/>
    <linearGradient id="linear-gradient-5" x1="0.573" y1="-0.231" x2="0.443" y2="0.953" gradientUnits="objectBoundingBox">
      <stop offset="0" stop-color="#f98885"/>
      <stop offset="1" stop-color="#d85656"/>
    </linearGradient>
    <radialGradient id="radial-gradient" cx="0.597" cy="0.786" r="0.66" gradientTransform="translate(0.072) scale(0.855 1)" gradientUnits="objectBoundingBox">
      <stop offset="0" stop-color="#8e00ff"/>
      <stop offset="1" stop-color="#380690" stop-opacity="0"/>
    </radialGradient>
    <linearGradient id="linear-gradient-6" x1="0.443" y1="0.716" x2="0.99" y2="0.264" gradientUnits="objectBoundingBox">
      <stop offset="0" stop-color="#ff86cc"/>
      <stop offset="1" stop-color="#fff" stop-opacity="0"/>
    </linearGradient>
    <linearGradient id="linear-gradient-7" x1="0" y1="0.5" x2="1" y2="0.5" xlink:href="#linear-gradient-6"/>
    <linearGradient id="linear-gradient-9" x1="0.135" y1="1.074" x2="0.531" y2="0.527" gradientUnits="objectBoundingBox">
      <stop offset="0" stop-color="#2ba2ff"/>
      <stop offset="0.994" stop-color="#090628" stop-opacity="0"/>
    </linearGradient>
    <linearGradient id="linear-gradient-10" x1="0.988" y1="-0.353" x2="0.233" y2="0.873" gradientUnits="objectBoundingBox">
      <stop offset="0" stop-color="#270d84"/>
      <stop offset="1" stop-color="#1a0359"/>
    </linearGradient>
    <linearGradient id="linear-gradient-11" x1="0.719" y1="-0.333" x2="0.329" y2="1.19" xlink:href="#linear-gradient-10"/>
    <linearGradient id="linear-gradient-12" x1="1.481" y1="-0.79" x2="0.045" y2="1.082" xlink:href="#linear-gradient-3"/>
    <linearGradient id="linear-gradient-13" x1="1.697" y1="-1.054" x2="-0.517" y2="1.753" xlink:href="#linear-gradient-2"/>
  </defs>
  <g id="Group_425" data-name="Group 425" transform="translate(197.857 -22.809)">
    <path id="Path_3038" data-name="Path 3038" d="M152.211,35.706S-11.734,97.75-123.365,258.338s-86.244,315.82.126,422.761S290.783,885.519,484.72,774.452s111.49-376.653-2.97-492.794S322.592-29.1,152.211,35.706Z" transform="translate(0 0)" fill="#6e17a2" opacity="0.46"/>
    <g id="Group_424" data-name="Group 424" transform="translate(-179.013 59.59)">
      <g id="Group_423" data-name="Group 423" transform="translate(0 0)" clip-path="url(#clip-path)">
        <path id="Path_3039" data-name="Path 3039" d="M540.377,587.333c-13.792,115.9-75.462,225.026-209.2,240.448-192.406,22.2-416.242-144.419-488.131-271.97-8.756-15.514-15.258-30.44-19.177-44.4-36.174-128.63.641-277.025,161.893-377.706,161.269-100.664,331.5-93.265,331.5-93.265C342.529,41.505,363.5,46.3,381.03,54.2c84.289,37.894,89.252,147.074,113.355,254.076,5.971,26.576,13.132,53,22.986,78.171C539.331,442.565,548.856,516.231,540.377,587.333Z" transform="translate(188.884 -40.323)" fill="url(#linear-gradient)"/>
        <g id="Group_408" data-name="Group 408" transform="translate(-24.362 303.74)">
          <path id="Path_3040" data-name="Path 3040" d="M-200.485,236.273-75.57,184.948H23.252L-96.114,246.6Z" transform="translate(200.485 -184.948)" fill="#c2bdff"/>
          <path id="Path_3041" data-name="Path 3041" d="M-200.485,209.386-96.114,219.71l24.43,219.446-53.3,6.275Z" transform="translate(200.485 -158.061)" fill="#8a77e5"/>
          <path id="Path_3042" data-name="Path 3042" d="M-150.789,246.6l119.365-61.649L-14.046,366.66-129.69,458.622Z" transform="translate(255.16 -184.948)" fill="#a195f9"/>
          <path id="Path_3043" data-name="Path 3043" d="M-150.317,240.5c3.312,13.71-2.823,26.954-13.7,29.581s-22.382-6.357-25.694-20.067,2.825-26.954,13.7-29.581S-153.627,226.791-150.317,240.5Z" transform="translate(211.35 -146.408)" fill="#fff" opacity="0.25" style="mix-blend-mode: overlay;isolation: isolate"/>
          <path id="Path_3044" data-name="Path 3044" d="M-137.113,234.887h-29.535l-1.265-10.178h29.535Z" transform="translate(236.32 -141.204)" fill="#fff" opacity="0.25" style="mix-blend-mode: overlay;isolation: isolate"/>
          <path id="Path_3045" data-name="Path 3045" d="M-136.239,245.71h-29.535l-1.265-10.178H-137.5Z" transform="translate(237.281 -129.296)" fill="#fff" opacity="0.25" style="mix-blend-mode: overlay;isolation: isolate"/>
          <path id="Path_3046" data-name="Path 3046" d="M-109.882,276.8H-186.66l-1.224-10.178h76.779Z" transform="translate(214.348 -95.089)" opacity="0.25" style="mix-blend-mode: overlay;isolation: isolate"/>
          <path id="Path_3047" data-name="Path 3047" d="M-117.536,288.433h-59.5l-1.224-10.178h59.5Z" transform="translate(224.939 -82.293)" opacity="0.25" style="mix-blend-mode: overlay;isolation: isolate"/>
          <path id="Path_3048" data-name="Path 3048" d="M-116.138,300.064h-59.5l-1.224-10.178h59.5Z" transform="translate(226.478 -69.496)" opacity="0.25" style="mix-blend-mode: overlay;isolation: isolate"/>
          <path id="Path_3049" data-name="Path 3049" d="M-114.739,311.7h-59.5l-1.224-10.178h59.5Z" transform="translate(228.017 -56.7)" opacity="0.25" style="mix-blend-mode: overlay;isolation: isolate"/>
        </g>
        <g id="Group_411" data-name="Group 411" transform="translate(206.223 124.215)">
          <g id="Group_409" data-name="Group 409" transform="translate(0 8.956)">
            <rect id="Rectangle_163" data-name="Rectangle 163" width="155.574" height="230.741" opacity="0.25" style="mix-blend-mode: overlay;isolation: isolate"/>
            <rect id="Rectangle_164" data-name="Rectangle 164" width="9.213" height="230.741" transform="translate(155.574)" opacity="0.45" style="mix-blend-mode: overlay;isolation: isolate"/>
            <rect id="Rectangle_165" data-name="Rectangle 165" width="118.879" height="176.329" transform="translate(18.348 27.21)" fill="#fff" opacity="0.25" style="mix-blend-mode: overlay;isolation: isolate"/>
          </g>
          <g id="Group_410" data-name="Group 410" transform="translate(220.944)">
            <rect id="Rectangle_166" data-name="Rectangle 166" width="155.574" height="230.741" transform="translate(0)" opacity="0.25" style="mix-blend-mode: overlay;isolation: isolate"/>
            <rect id="Rectangle_167" data-name="Rectangle 167" width="9.213" height="230.741" transform="translate(155.574)" opacity="0.45" style="mix-blend-mode: overlay;isolation: isolate"/>
            <rect id="Rectangle_168" data-name="Rectangle 168" width="118.879" height="176.329" transform="translate(18.348 27.21)" fill="#fff" opacity="0.25" style="mix-blend-mode: overlay;isolation: isolate"/>
          </g>
        </g>
        <g id="Group_414" data-name="Group 414" transform="translate(339.284 188.589)">
          <path id="Path_3050" data-name="Path 3050" d="M206.658,230.873a21.461,21.461,0,0,0-4.641,2.088c-17.7,10.373-25.857,44.765-17.726,73.922a.252.252,0,0,1,.029.126,64.428,64.428,0,0,0,2.119,6.416c.095.281.124.405.124.405a.1.1,0,0,0,.031.063,2.082,2.082,0,0,0,.155.374c.281.716.874,2.211,1.9,4.486.592,1.245,1.248,2.491,1.9,3.707-.031.124-.031.248-.063.4-2.117,13.739.063,80.653.063,80.653l-51.837,5.824L22.3,422.393s-1.058-38.316.592-78.284c.466-11.213-2.243-23.052-6.355-34.267C5.979,281.09-13.9,256.386-13.9,256.386l.095-.092c17.786-20.685,48.72-34.766,57.692-38.566,1.59-.687,2.493-1.029,2.493-1.029l1.308-.374,43.644-12.679s8.659-.466,17.973-1.464c2.928-.311,7.914-.155,15.233,1a188.355,188.355,0,0,1,22.709,5.234c13.708,3.894,31.091,10.03,52.524,19.408.748.311,1.493.653,2.243.964C203.541,229.472,205.1,230.157,206.658,230.873Z" transform="translate(42.119 -50.989)" fill="url(#linear-gradient-2)"/>
          <path id="Path_3051" data-name="Path 3051" d="M119.765,214.3c-5.981,3.022-21.962,13.893-24.36,42.957-2.959,35.917-11.839,128.937-32.584,136.1-2.182.748-3.491,1.556-4.081,2.43l51.835-5.826s-2.18-66.914-.061-80.651c.031-.155.031-.281.061-.405-.653-1.214-1.308-2.461-1.9-3.707-1.029-2.275-1.621-3.77-1.9-4.486a1.765,1.765,0,0,1-.155-.374.1.1,0,0,1-.032-.063s-.031-.124-.126-.405a64.779,64.779,0,0,1-2.117-6.416.228.228,0,0,0-.032-.124c-.405-1.434-.748-2.867-1.027-4.331a.526.526,0,0,1-.032-.218c-5.328-27.164,7.2-59.843,22.989-71.245a1.533,1.533,0,0,1,.342-.216Z" transform="translate(122.033 -37.501)" opacity="0.25" style="mix-blend-mode: overlay;isolation: isolate"/>
          <path id="Path_3052" data-name="Path 3052" d="M31.323,281.422c-8.224,12.026-16.48,23.646-16.48,23.646l-42.178-25.794L.826,227.905a.545.545,0,0,0,.155-.031l-.095.092S20.763,252.671,31.323,281.422Z" transform="translate(27.335 -22.569)" fill="#0d003d"/>
          <path id="Path_3053" data-name="Path 3053" d="M116.95,208.383c-12.429,19.126-29.314,62.4-50.871,62.4-25.887,0-29.064-21.369-38.784-36.852-5.389-8.567-10.341-13.519-13.706-16.23,1.588-.685,2.491-1.027,2.491-1.027l1.308-.374,43.644-12.679s8.659-.468,17.973-1.464c2.93-.313,7.913-.158,15.235,1A188.435,188.435,0,0,1,116.95,208.383Z" transform="translate(72.359 -51.022)" opacity="0.25" style="mix-blend-mode: overlay;isolation: isolate"/>
          <path id="Path_3054" data-name="Path 3054" d="M92.25,203.149c-4.86,11.994-10.157,59.78-32.8,59.967-23.738.218-31.276-40.651-44.049-46.819l43.644-12.679s8.659-.468,17.973-1.464C79.945,201.841,84.929,202,92.25,203.149Z" transform="translate(74.349 -51.022)" fill="#0d003d"/>
          <path id="Path_3055" data-name="Path 3055" d="M20,212.61c-1.993,1.059-5.452,2.461-7.353.561-.685-.687-1.869-3.333-3.333-6.979-2.928-7.477-6.853-19.158-9.127-26.511a58.32,58.32,0,0,1-1.806-6.666,2.06,2.06,0,0,1,.9-1.714,25.213,25.213,0,0,0,5.421,1.527C6.578,179.214,12.278,197.688,20,212.61Z" transform="translate(55.632 -84.81)" fill="#7366d3"/>
          <path id="Path_3056" data-name="Path 3056" d="M10.971,201.8s-5.358,1.247-6.292.687-7.227-16.854-7.756-20.872c-.561-4.02,4.921-6.326,4.921-6.326C4.118,182.644,8.044,194.325,10.971,201.8Z" transform="translate(53.979 -80.42)" fill="#ff9700"/>
          <path id="Path_3057" data-name="Path 3057" d="M129.093,169.821c2.109,15.993-14.46,62.569-20.884,83.564-1.453,4.776-2.4,8.229-2.459,9.7-.273-1.518-.433-2.8-.527-3.883-.034-.447-.065-.846-.065-1.248-.048-1.054-.063-2.043-.111-2.938-.017-.162-.017-.321-.032-.464.431-1.342.83-2.764,1.245-4.234.527-2.812,1.245-5.7,1.9-8.533v-.063a68.077,68.077,0,0,0,1.55-9.442.233.233,0,0,0,.034-.16,25.79,25.79,0,0,0,.095-2.7c-.191-10.721,2.205-38.316,2.205-38.316s-.5.239-1.39.655c-.382.145-.846.368-1.374.592-.191.08-.416.174-.624.239a9.39,9.39,0,0,1-1.342.59c-.095.065-.223.1-.336.16.895,2.684,1.119,6.3-3.339,7.75-7.508,2.493-2.3,25.74-7.844,20.947-3.835-3.339-5.305-16.554-5.8-22.993-.368.065-.718.16-1.054.208-9.81,1.838-41.462,12.4-49.228,30.917-3.978-5.591,3.661-16.984,4.043-17.56-.128.08-1.006.624-2.445,1.359l-.015.017a42.042,42.042,0,0,1-16.825,4.553h-.1c-.687.031-1.407.031-2.109,0,1.63,7.542,5.337,24.623,5.736,27.386v.031c.4,3.02-11.186-18.2-14.571-29.127-.193-.1-.416-.128-.592-.225a27.707,27.707,0,0,1-6.9-3.929c-3.946-3.02-7.7-7.462-11.007-13.79a75.471,75.471,0,0,1-8.693-39.4A38.612,38.612,0,0,0,7.948,163.6a34.909,34.909,0,0,0,13.069-4.123c-7.414-1.869-5.576-10.753-5.576-10.753s3.9,4.65,15.548,1.119c11.679-3.516,49.594-32.962,74.76-2.43-1.647-9.97-10.9-17.192-10.9-17.192s8.325-1.308,11.648,5.177c3.339,6.473,2.222,14.269,2.222,14.269s7.588-13.149,23.518-.382c-13.708-.752-18.694,2.587-18.694,2.587S126.5,150.231,129.093,169.821Z" transform="translate(42.089 -130.118)" fill="#0d003d"/>
          <path id="Path_3058" data-name="Path 3058" d="M90.876,197.471a26.538,26.538,0,0,1-.092,2.709c0,.063,0,.126-.032.155-.466,3.022-1,6.168-1.558,9.44v.061c-.653,2.835-1.369,5.734-1.9,8.537-.405,1.464-.811,2.9-1.248,4.236-.777,2.43-1.651,4.673-2.554,6.76a59.38,59.38,0,0,1-8.38,14.048c-.124.155-.279.311-.405.468-6.79,8.193-13.737,11.307-16.386,11.618-3.488.374-8.814.624-17.2-3.333A77.286,77.286,0,0,1,28.045,244.1c-4.86-3.612-9.409-10.4-13.458-18.129-1.993-3.833-3.862-7.914-5.544-11.963v-.031c-.032-.155-.063-.374-.095-.653a.116.116,0,0,0-.032-.094c-.716-4.049-3.8-18.255-5.389-25.637-.092-.342-.155-.687-.218-1,11.715.405,21.5-5.95,21.5-5.95a39.729,39.729,0,0,0-3.209,5.826c-1.714,3.831-3.022,8.659-.84,11.744a32.974,32.974,0,0,1,9.188-11.994c12.618-11.12,32.586-17.507,40.032-18.908.342-.063.685-.158,1.058-.218.5,6.448,1.962,19.656,5.794,22.989,5.544,4.8.342-18.442,7.85-20.933,4.454-1.464,4.236-5.078,3.333-7.758a3.148,3.148,0,0,0,.342-.155,10.814,10.814,0,0,0,1.34-.592,3.655,3.655,0,0,0,.622-.248c.531-.218,1-.437,1.371-.592.9-.405,1.4-.655,1.4-.655S90.689,186.754,90.876,197.471Z" transform="translate(61.049 -98.175)" fill="url(#linear-gradient-3)"/>
          <path id="Path_3059" data-name="Path 3059" d="M67.079,239.086c-1.34,7.04-3.583,15.669-6.574,21.651-2.243,4.454-4.86,7.477-7.85,7.319-10.28-.561-22.491-21.088-24.984-27.756-1.09-2.865-2.585-7.88-3.955-12.677-.905-3.241-1.777-6.387-2.4-8.693a37.6,37.6,0,0,0,9.035,3.054,25.752,25.752,0,0,0,8.161.279c4.3-.466,19.719-8.317,27.725-32.9.063,1.027.094,2.148.155,3.4,0,.4.032.809.063,1.245.529,11.963,1.432,30.623,1.964,33.24C68.667,228.494,68.2,233.26,67.079,239.086Z" transform="translate(80.86 -64.933)" fill="url(#linear-gradient-4)"/>
          <g id="Group_412" data-name="Group 412" transform="translate(64.358 60.978)" opacity="0.25" style="mix-blend-mode: overlay;isolation: isolate">
            <path id="Path_3060" data-name="Path 3060" d="M3.309,175.338c11.715.405,21.5-5.95,21.5-5.95a39.727,39.727,0,0,0-3.209,5.826c-6.977.311-13.395.748-18.068,1.121C3.435,175.993,3.372,175.649,3.309,175.338Z" transform="translate(-3.309 -147.893)"/>
            <path id="Path_3061" data-name="Path 3061" d="M76.924,197.471a26.538,26.538,0,0,1-.092,2.709c0,.063,0,.126-.031.155-.466,3.022-1,6.168-1.558,9.44v.061c-.653,2.835-1.369,5.734-1.9,8.537-.405,1.464-.811,2.9-1.248,4.236-.777,2.43-1.651,4.673-2.554,6.76.032-18.442-5.731-32.181-15.483-38.847-5.763-3.925-22.272-4.641-38.068-4.3,12.618-11.12,32.586-17.507,40.032-18.908.342-.063.685-.158,1.058-.218.5,6.448,1.962,19.656,5.794,22.989,5.544,4.8.342-18.442,7.851-20.933,4.454-1.464,4.236-5.078,3.333-7.758a3.148,3.148,0,0,0,.342-.155,10.815,10.815,0,0,0,1.34-.592,3.655,3.655,0,0,0,.622-.248c.531-.218,1-.437,1.371-.592.9-.405,1.4-.655,1.4-.655S76.737,186.754,76.924,197.471Z" transform="translate(10.644 -159.153)"/>
          </g>
          <path id="Path_3062" data-name="Path 3062" d="M71.755,215.508c-6.79,8.193-13.737,11.307-16.386,11.618-3.488.374-8.814.624-17.2-3.333a77.283,77.283,0,0,1-13.082-8.069c-4.86-3.612-9.409-10.4-13.458-18.129-1.993-3.833-3.862-7.914-5.544-11.963V185.6c-.032-.155-.063-.374-.095-.653,4.549,9.251,11.37,19.782,21,26.353C47.053,225.009,60.572,228.529,71.755,215.508Z" transform="translate(64.003 -69.796)" fill="#fff" opacity="0.25" style="mix-blend-mode: overlay;isolation: isolate"/>
          <path id="Path_3063" data-name="Path 3063" d="M62.346,239.086c-10.125-5.794-25.639-12.523-36.728-17.1a25.752,25.752,0,0,0,8.161.279c4.3-.466,19.719-8.317,27.725-32.9.063,1.027.095,2.148.155,3.4,0,.4.032.809.063,1.245.529,11.963,1.432,30.623,1.964,33.24C63.934,228.494,63.468,233.26,62.346,239.086Z" transform="translate(85.593 -64.933)" opacity="0.25" style="mix-blend-mode: overlay;isolation: isolate"/>
          <path id="Path_3064" data-name="Path 3064" d="M59.248,240.7c-2.243,4.454-4.86,7.477-7.85,7.319-10.28-.561-22.491-21.088-24.984-27.756-1.09-2.865-2.585-7.88-3.955-12.677C27.535,219.73,42.925,252.067,59.248,240.7Z" transform="translate(82.118 -44.893)" fill="#fff" opacity="0.25" style="mix-blend-mode: overlay;isolation: isolate"/>
          <path id="Path_3065" data-name="Path 3065" d="M101,162.39c2.109,15.993-14.46,62.569-20.884,83.564-1.214.622-2.285,1.166-3.163,1.63-.017-.162-.017-.321-.031-.464.431-1.342.83-2.764,1.245-4.234.527-2.812,1.245-5.7,1.9-8.533v-.063a68.077,68.077,0,0,0,1.55-9.442.233.233,0,0,0,.034-.16,25.792,25.792,0,0,0,.095-2.7c-.191-10.721,2.205-38.316,2.205-38.316s-.5.239-1.39.655c-.382.145-.846.368-1.374.592-.191.08-.416.174-.624.239a9.391,9.391,0,0,1-1.342.59c-.095.065-.223.1-.336.16.895,2.684,1.119,6.3-3.339,7.75-7.508,2.493-2.3,25.74-7.844,20.947-3.835-3.339-5.305-16.554-5.8-22.993-.368.065-.718.16-1.054.208-9.81,1.838-41.462,12.4-49.228,30.917,0,0,2.829-21.393,25.437-32.339s16.426-31.843,16.426-31.843l9.938,6.166s-.687-22.609-18.839-27.737c23.281-1.71,38.683,16.776,38.683,16.776s-8.245-22.081,20.882-11.9c-13.708-.752-18.694,2.587-18.694,2.587S98.406,142.8,101,162.39Z" transform="translate(70.186 -122.687)" opacity="0.25" style="mix-blend-mode: overlay;isolation: isolate"/>
          <g id="Group_413" data-name="Group 413" transform="translate(79.549 5.784)">
            <path id="Path_3066" data-name="Path 3066" d="M78.489,187.041s-13.378-58.083-67.947-43.048c5.017-8.84,19.267-13.836,37.4-9.579s36.6,28.493,40.042,50.056Z" transform="translate(-10.542 -132.873)" fill="#fa0"/>
            <path id="Path_3067" data-name="Path 3067" d="M59.56,211.509a5.3,5.3,0,0,1-4.081-1.369c-4.362-3.427-8.474-12.8-10.186-24.2-1.682-11.433-.437-21.619,2.772-26.137a5.237,5.237,0,0,1,3.488-2.461c5.671-.84,12.055,10.623,14.267,25.576S65.231,210.669,59.56,211.509Z" transform="translate(26.867 -106.005)" fill="#7366d3"/>
            <path id="Path_3068" data-name="Path 3068" d="M63.513,211.486l-7.569,1.121c-5.671.842-12.057-10.623-14.237-25.574-2.211-14.985.592-27.788,6.261-28.63l7.54-1.09a5.237,5.237,0,0,0-3.488,2.461c-3.209,4.517-4.454,14.7-2.772,26.137,1.712,11.4,5.824,20.777,10.186,24.2A5.3,5.3,0,0,0,63.513,211.486Z" transform="translate(22.913 -105.982)" fill="#8a77e5"/>
            <path id="Path_3069" data-name="Path 3069" d="M64.548,197.055l-6.387.966c-3.77.529-7.974-7.042-9.44-16.917-1.464-9.9.405-18.379,4.144-18.939l6.418-.935a4.278,4.278,0,0,0-2.9,2.617c-1.182,2.335-1.806,6.074-1.743,10.436a43.5,43.5,0,0,0,.5,5.857A43.972,43.972,0,0,0,56.385,186c1.185,4.175,2.867,7.54,4.673,9.409C62.179,196.618,63.4,197.242,64.548,197.055Z" transform="translate(30.913 -101.674)" fill="#ff9700"/>
            <path id="Path_3070" data-name="Path 3070" d="M61.188,197.07c-1.153.187-2.369-.437-3.491-1.651-1.806-1.869-3.488-5.234-4.673-9.409a43.973,43.973,0,0,1-1.245-5.855,43.5,43.5,0,0,1-.5-5.857c-.063-4.362.561-8.1,1.743-10.436a4.278,4.278,0,0,1,2.9-2.617c3.738-.561,7.974,7.008,9.407,16.915C66.793,188.067,64.956,196.541,61.188,197.07Z" transform="translate(34.274 -101.689)" fill="#fa0"/>
          </g>
          <path id="Path_3071" data-name="Path 3071" d="M45.8,193.12a13.179,13.179,0,0,1-4.49,5.465l-.015.017c-3.18,2.411-8.4,4.681-16.825,4.553h-.1c-6.3-.111-12.654-2.493-18.44-5.864-3.946-3.02-7.7-7.462-11.007-13.79a75.471,75.471,0,0,1-8.693-39.4,38.612,38.612,0,0,0,21.714,4.123,21.693,21.693,0,0,1-8.371,2.556c-6.935.512-9.938-2.571-9.938-2.571S-4.723,183.1,8.779,193.12C22.265,203.155,45.8,193.12,45.8,193.12Z" transform="translate(42.089 -114.736)" fill="#fff" opacity="0.25" style="mix-blend-mode: overlay;isolation: isolate"/>
        </g>
        <g id="Group_416" data-name="Group 416" transform="translate(80.008 500.524)">
          <path id="Path_3072" data-name="Path 3072" d="M467.7,460.572s-8.474,48.565-76.447,87.349c-1.743,1.029-3.583,2.025-5.421,3.022-23.3,12.555-53.143,23.862-91.335,31.931a219.033,219.033,0,0,1-26.45,3.894q-2.382.233-4.765.374c-59.624,4.173-128-12.244-192.018-39.813-.935-.374-1.869-.777-2.772-1.182-72.771-31.713-139.622-77.631-181.334-123.8-.748-.779-1.464-1.588-2.151-2.367-16.51-18.692-28.878-37.352-35.793-55.107l14.548-10,5.794-3.986,74.267-51.026h.029l3.241-2.243,27.6-18.973,83.144,5.889,7.351.5,132.3,9.377,17.259,1.214h.029l56.915,4.02,3.022.218,101.554,7.2,1,.063,3.272.248,35.233,2.461v.031l3.333.219,7.911.561,18.473,1.308,6.418,42.989.466,3.178,3.178,21.09.561,3.862Z" transform="translate(150.789 -278.646)" fill="url(#linear-gradient-5)"/>
          <g id="Group_415" data-name="Group 415" transform="translate(14.548 5.889)" opacity="0.45">
            <path id="Path_3073" data-name="Path 3073" d="M71.637,376.827c-1.5,15.825-7.6,32.584-21.277,41.8C23.228,436.918-27.985,429.6-38.452,395.051c-2.18-7.164-2.68-16.106,2.43-22.149,4.454-5.234,12.336-7.6,18.753-9.064,14.143-3.272,29.936-1.653,39.969,9.749,1.338,1.5-.874,3.707-2.182,2.211-11.244-12.771-30.341-12.273-45.106-6.479-25.857,10.186-5.952,41.027,10.715,49.344C.83,426.016,19.645,426.39,35.283,422c17.694-4.984,27.974-18.816,31.837-36.26,3.614-16.449,2.4-35.357-12.771-45.606C40.112,330.5,20.517,327.544,3.757,326.049c-16.26-1.432-32.616-.935-48.907-.218-18.036.811-36.1,1.4-51.681,11.652-13.24,8.691-24.142,21.869-33.021,34.8-.59.874-1.182,1.745-1.743,2.617-.748-.779-1.464-1.588-2.151-2.367q3.554-5.374,7.571-10.467c13.769-17.57,30.06-33.021,52.74-37.007,21.182-3.707,44.329-3.646,65.761-2.8,19.843.748,41.773,3.239,59.53,12.771C67.9,343.619,73.288,359.289,71.637,376.827Z" transform="translate(154.992 -237.081)" opacity="0.25" style="mix-blend-mode: overlay;isolation: isolate"/>
            <path id="Path_3074" data-name="Path 3074" d="M42.193,338.022c-8.413-16.65-24.4-28.529-41.512-35.161-19.546-7.58-43.646-9.808-60.907,4.089-1.56,1.256.655,3.449,2.2,2.2C-38.257,293.238-8.271,300,11.91,311.656c23.879,13.79,35.3,36.486,33.544,63.9-3.335,52.019-41.128,97.6-93.471,105.354-1.976.292-1.136,3.3.827,3,43.77-6.481,78.681-39.276,90.995-81.346C49.8,382.084,52.108,357.644,42.193,338.022Z" transform="translate(235.29 -264.522)" opacity="0.25" style="mix-blend-mode: overlay;isolation: isolate"/>
            <path id="Path_3075" data-name="Path 3075" d="M199.4,509.018c-1.743,1.029-3.583,2.025-5.421,3.022-7.2,0-14.361-.374-21.432-1a325.591,325.591,0,0,1-52.521-8.472c-13.145-3.365-26.914-7.508-37.381-16.541C61.153,467.524,61.434,436,58.1,410.175,53.8,377,45.3,343.292,23.959,316.75c-1.245-1.556.935-3.77,2.211-2.211,16.262,20.248,25.45,44.547,30.778,69.81,5.326,25.389,4.112,52.99,13.145,77.413,10.03,27.1,36.291,35.014,62.21,40.435C153.954,506.714,176.944,509.8,199.4,509.018Z" transform="translate(328.087 -245.631)" opacity="0.25" style="mix-blend-mode: overlay;isolation: isolate"/>
            <path id="Path_3076" data-name="Path 3076" d="M188.779,334.277a62.421,62.421,0,0,0-7.321-3.178c-11.9-4.236-26.042-6.137-38.471-3.488-13.863,2.928-23.831,13.053-31.526,24.36C103.952,363,98.19,375.365,96.2,388.636c-1.214,7.974-1.682,17.663,6.231,22.461,4.734,2.9,10.652,3.551,16.073,3.831,4.112.218,7.632.25,11.62-.9,5.452-1.619,7.632-5.484,9.47-10.467,2.337-6.261,4.578-13.208,4.549-19.937-.031-10.217-7.416-20.216-18.629-17.849-7.632,1.588-12.057,8.317-13.395,15.514-.344,1.962-3.364,1.121-2.991-.842,2.148-11.776,13.177-21.464,25.605-17.165,14.237,4.954,13.613,22.149,10.217,33.924-1.651,5.67-3.457,12.9-8.037,17.009-4.984,4.518-12.116,4.144-18.41,3.831-11.526-.622-23.892-4.018-25.887-17.1s3.488-27.88,9.377-39.25c6.2-11.931,14.672-24.081,26.166-31.431,16.667-10.623,41.214-8.754,60.061.155Z" transform="translate(403.57 -235.745)" opacity="0.25" style="mix-blend-mode: overlay;isolation: isolate"/>
            <path id="Path_3077" data-name="Path 3077" d="M166.307,475.905c-23.52,12.866-54.485,13.082-73.269-7.974-18.131-20.342-24.486-50.123-20.5-76.6A96.148,96.148,0,0,1,87.4,352.357c8.38-12.616,19.376-23.115,29.1-34.641,6.448-7.664,12.492-16.2,16.323-25.513l3.272.248c-.374,1-.779,2.025-1.247,3.022-11.307,25.078-35.449,40.964-48.628,64.795-13.426,24.3-15.325,54.454-5.637,80.4,5.171,13.8,13.924,27.88,27.038,35.233,13.926,7.819,31.123,7.164,45.887,2.18,12.834-4.331,25.139-12.429,32.15-24.268,7.911-13.3,8.006-30.747-1.9-43.02-1.245-1.558.966-3.77,2.211-2.212C204.933,432.074,189.98,462.913,166.307,475.905Z" transform="translate(380.686 -269.619)" opacity="0.25" style="mix-blend-mode: overlay;isolation: isolate"/>
            <path id="Path_3078" data-name="Path 3078" d="M160.512,293.727a36.089,36.089,0,0,1-3.054,8.567c-4.61,9.033-12.866,15.264-20.622,21.464-9.907,7.911-20.092,15.543-29.657,23.862-10.467,9.064-19.471,19.966-19.813,34.454-.032,1.993-3.146,1.993-3.115,0,.529-22.68,19.969-36.23,36.073-49.1,9.19-7.351,19.5-14.267,27.6-22.865a37.968,37.968,0,0,0,9.253-16.6Z" transform="translate(394.829 -268.183)" opacity="0.25" style="mix-blend-mode: overlay;isolation: isolate"/>
            <path id="Path_3079" data-name="Path 3079" d="M156.933,320.045c-12.492-1.682-25.076-2.867-37.694-3.675-1.993-.126-1.993-3.241,0-3.117q18.694,1.169,37.228,3.614Z" transform="translate(431.677 -246.465)" opacity="0.25" style="mix-blend-mode: overlay;isolation: isolate"/>
            <path id="Path_3080" data-name="Path 3080" d="M81.364,402.565c-8.472-22.43-9.5-46.635-16.636-69.4-7.1-22.585-22.989-45.2-48.689-46.572a1.484,1.484,0,0,1-1-.437L32.3,287.366h.029c14.456,6.355,25.234,19.658,31.557,34.485,10.873,25.482,10.715,54.017,20.466,79.9C85.071,403.624,82.05,404.434,81.364,402.565Z" transform="translate(318.686 -276.277)" opacity="0.25" style="mix-blend-mode: overlay;isolation: isolate"/>
            <path id="Path_3081" data-name="Path 3081" d="M103.862,305.809a159.375,159.375,0,0,1-7.321,19c-1.651,3.457-3.238,9-6.76,11.057-6.571,3.833-17.568.063-23.331-3.738-14.487-9.562-15.8-26.945-16.075-43.486l3.022.218c.092,12.366.9,24.826,8.5,34.7,5.139,6.7,20.466,15.825,28.067,7.29,2.774-3.052,4.549-9,6.076-12.679,1.838-4.328,3.4-8.722,4.828-13.208C101.463,303.066,104.483,303.877,103.862,305.809Z" transform="translate(357.557 -273.535)" opacity="0.25" style="mix-blend-mode: overlay;isolation: isolate"/>
            <path id="Path_3082" data-name="Path 3082" d="M95.305,500.609q-2.382.233-4.765.374c-.063-.063-.124-.095-.187-.156-19.469-17.133-31.244-40.716-42.3-63.736C35.278,410.549,21.6,384.538,6.461,359.273c-1.058-1.712,1.651-3.3,2.68-1.556q20.14,33.642,37.32,68.939c10.623,21.9,20.653,44.671,37.07,63.018A90.052,90.052,0,0,0,95.305,500.609Z" transform="translate(308.98 -198.376)" opacity="0.25" style="mix-blend-mode: overlay;isolation: isolate"/>
            <path id="Path_3083" data-name="Path 3083" d="M93.594,453.288A150.833,150.833,0,0,1,35.61,385.372c-.792-1.836-3.478-.25-2.69,1.573a153.628,153.628,0,0,0,59.1,69.033C93.72,457.052,95.285,454.357,93.594,453.288Z" transform="translate(338.197 -168.014)" opacity="0.25" style="mix-blend-mode: overlay;isolation: isolate"/>
            <path id="Path_3084" data-name="Path 3084" d="M74.114,432.19c-3.894,5.918-12.616,6.2-18.942,6.916-16.041,1.745-37.163-1.714-39.282-21.246-.218-1.993,2.9-1.962,3.117,0,1.651,15.233,17.973,19.313,30.808,18.6,5.2-.279,11.278-.5,16.2-2.3,8.348-3.022,8.037-12.15,5.2-19.1-8.6-21.122-40.651-26.727-60.714-23.925-22.741,3.148-37.663,21.059-54.109,36.354-.935-.374-1.869-.777-2.772-1.182,8.035-7.2,15.543-15.172,23.8-22.088C-8.188,392.192,7.2,385.992,26.2,387.924c17.415,1.775,38.255,6.6,46.914,23.644C76.107,417.394,78.039,426.272,74.114,432.19Z" transform="translate(251.11 -164.692)" opacity="0.25" style="mix-blend-mode: overlay;isolation: isolate"/>
            <path id="Path_3085" data-name="Path 3085" d="M13.945,388.841a32.1,32.1,0,0,0-28.964-11.782c-1.966.233-1.989,3.352,0,3.115a29.3,29.3,0,0,1,26.761,10.871C13,392.6,15.194,390.387,13.945,388.841Z" transform="translate(283.981 -176.519)" opacity="0.25" style="mix-blend-mode: overlay;isolation: isolate"/>
            <path id="Path_3086" data-name="Path 3086" d="M40.463,327.641c-8.1-6.324-18.318-7.6-28.193-8.972-11.244-1.588-22.554-2.772-33.861-3.644A534.841,534.841,0,0,0-81.558,313.9a528.4,528.4,0,0,0-62.3,6.011l5.794-3.986a530.155,530.155,0,0,1,53.519-5.015,538.248,538.248,0,0,1,71.929,1.743c17.6,1.621,40.714,1.4,55.262,12.773C44.233,326.675,42.021,328.855,40.463,327.641Z" transform="translate(143.862 -249.575)" opacity="0.25" style="mix-blend-mode: overlay;isolation: isolate"/>
            <path id="Path_3087" data-name="Path 3087" d="M15.609,281.948Q.1,287.977-15.385,293.942c-14.019,5.358-27.819,8.785-42.9,8.691-13.769-.092-28.443-1.09-41.9-4.268a57.091,57.091,0,0,1-5.547-1.588l3.241-2.243a88.377,88.377,0,0,0,13.521,2.646c12.99,1.653,26.385,2.991,39.469,2.088,14.08-.966,26.882-5.824,39.935-10.9,5.95-2.306,11.87-4.612,17.82-6.916Z" transform="translate(185.818 -281.45)" opacity="0.25" style="mix-blend-mode: overlay;isolation: isolate"/>
            <path id="Path_3088" data-name="Path 3088" d="M52.475,377.4c-10.774-37.64-31.61-76.73-72.383-87.326-1.943-.5-2.77,2.5-.827,3C18.978,303.4,39,341.652,49.47,378.231A1.56,1.56,0,0,0,52.475,377.4Z" transform="translate(278.106 -272.023)" opacity="0.25" style="mix-blend-mode: overlay;isolation: isolate"/>
          </g>
        </g>
        <g id="Group_418" data-name="Group 418" transform="translate(355.379 577.414)">
          <g id="Group_417" data-name="Group 417" transform="translate(0)">
            <path id="Path_3089" data-name="Path 3089" d="M224.92,317.2,76.133,315.257,21.17,398.534l90.62-5.358,91.756-1.2Z" transform="translate(64.605 -315.257)" fill="#34288c"/>
            <path id="Path_3090" data-name="Path 3090" d="M75.562,319H178.825l-13.695,52.22L45.49,372.3Z" transform="translate(91.361 -311.137)" fill="#fff" opacity="0.25" style="mix-blend-mode: overlay;isolation: isolate"/>
            <path id="Path_3091" data-name="Path 3091" d="M96.682,346.134h14.653l-1.943,7.41-16.976.153Z" transform="translate(142.987 -281.287)" fill="#fff" opacity="0.25" style="mix-blend-mode: overlay;isolation: isolate"/>
            <path id="Path_3092" data-name="Path 3092" d="M97.332,338.377h14.653l-1.943,7.41-16.977.153Z" transform="translate(143.702 -289.821)" fill="#fff" opacity="0.25" style="mix-blend-mode: overlay;isolation: isolate"/>
            <path id="Path_3093" data-name="Path 3093" d="M84.786,338.377H99.439l-1.943,7.41-16.976.153Z" transform="translate(129.9 -289.821)" fill="#fff" opacity="0.25" style="mix-blend-mode: overlay;isolation: isolate"/>
            <path id="Path_3094" data-name="Path 3094" d="M74.655,338.377H89.308l-1.943,7.41-16.976.153Z" transform="translate(118.754 -289.821)" fill="#fff" opacity="0.25" style="mix-blend-mode: overlay;isolation: isolate"/>
            <path id="Path_3095" data-name="Path 3095" d="M83.184,333.283H97.837l-1.943,7.41-16.976.153Z" transform="translate(128.137 -295.426)" fill="#fff" opacity="0.25" style="mix-blend-mode: overlay;isolation: isolate"/>
            <path id="Path_3096" data-name="Path 3096" d="M71.813,333.1H86.466l-1.943,7.41-16.976.153Z" transform="translate(115.627 -295.625)" fill="#fff" opacity="0.25" style="mix-blend-mode: overlay;isolation: isolate"/>
            <path id="Path_3097" data-name="Path 3097" d="M78.7,328.519H93.352l-1.943,7.41-16.977.153Z" transform="translate(123.203 -300.666)" fill="#fff" opacity="0.25" style="mix-blend-mode: overlay;isolation: isolate"/>
            <path id="Path_3098" data-name="Path 3098" d="M70,328.09H84.656l-1.943,7.41-16.977.153Z" transform="translate(113.636 -301.139)" fill="#fff" opacity="0.25" style="mix-blend-mode: overlay;isolation: isolate"/>
            <path id="Path_3099" data-name="Path 3099" d="M84.14,323.842H98.792l-1.943,7.41-16.977.153Z" transform="translate(129.188 -305.812)" fill="#fff" opacity="0.25" style="mix-blend-mode: overlay;isolation: isolate"/>
            <path id="Path_3100" data-name="Path 3100" d="M81.215,319.7H95.868l-1.943,7.41-16.977.153Z" transform="translate(125.971 -310.368)" fill="#fff" opacity="0.25" style="mix-blend-mode: overlay;isolation: isolate"/>
            <path id="Path_3101" data-name="Path 3101" d="M73.945,323.842H88.6l-1.943,7.41-16.976.153Z" transform="translate(117.972 -305.812)" fill="#fff" opacity="0.25" style="mix-blend-mode: overlay;isolation: isolate"/>
            <path id="Path_3102" data-name="Path 3102" d="M89.291,328.09h14.653L102,335.5l-16.976.153Z" transform="translate(134.855 -301.139)" fill="#fff" opacity="0.25" style="mix-blend-mode: overlay;isolation: isolate"/>
            <path id="Path_3103" data-name="Path 3103" d="M84.786,346.134H99.439l-1.943,7.41-16.976.153Z" transform="translate(129.9 -281.287)" fill="#fff" opacity="0.25" style="mix-blend-mode: overlay;isolation: isolate"/>
            <path id="Path_3104" data-name="Path 3104" d="M72.891,346.134H87.543l-1.943,7.41-16.977.153Z" transform="translate(116.812 -281.287)" fill="#fff" opacity="0.25" style="mix-blend-mode: overlay;isolation: isolate"/>
            <path id="Path_3105" data-name="Path 3105" d="M-19.671,355.29l268.151-3.5,5.552,26.011h-273.7Z" transform="translate(19.671 -275.067)" fill="#0d003d"/>
            <path id="Path_3106" data-name="Path 3106" d="M108.008,390.959l21.374-74.777,1.11,11.936L113.56,416.971Z" transform="translate(160.143 -314.239)" fill="#200e75"/>
          </g>
          <path id="Path_3107" data-name="Path 3107" d="M177.363,359.888s8.138,39.6-42.774,49.6S38.15,416.515,19.276,480.915" transform="translate(62.521 -266.155)" fill="none" stroke="#c14aff" stroke-linecap="round" stroke-linejoin="round" stroke-width="1.483"/>
        </g>
        <g id="Group_420" data-name="Group 420" transform="translate(-0.001 -0.002)">
          <path id="Path_3108" data-name="Path 3108" d="M523.652,487.493c-13.792,115.9-75.462,225.026-209.2,240.448-192.406,22.2-416.242-144.419-488.131-271.97,42.8-186.106,209.5-324.9,408.606-324.9A417.367,417.367,0,0,1,477.66,208.436c5.971,26.576,13.132,53,22.986,78.171C522.606,342.726,532.13,416.392,523.652,487.493Z" transform="translate(205.611 59.518)" fill="url(#radial-gradient)" style="mix-blend-mode: lighten;isolation: isolate"/>
          <g id="Group_419" data-name="Group 419" transform="translate(122.446 13.716)">
            <path id="Path_3109" data-name="Path 3109" d="M476.456,579.986c-14.342,2.4-27.859,4.341-40,6.282-71.982,11.5-80.681,81.8-145.116,90.846,2.106-5.53,3.224-16.354,3.663-30.421,1.978-64.929-10.9-198.707-10.9-198.707-1.338-.807-4.268-1.264-8.628-1.485-30.533-1.373-130.518,9.69-230.082-10.715-72.843-14.926-119.6-37.894-146.471-54.672-19.049-11.906-28.134-20.7-29.508-21.374,0,0,4.927,1.392,15.4.017,11.062-1.464,28.3-6.007,52.419-18.517,47-24.358,93.135-140.133,161.912-150.592,68.756-10.44,149.712-13.04,174.091-47A128.411,128.411,0,0,0,283.7,125.042c10.054-21.046,21.063-51.009,33.408-78.19,105.223,47.309,86.834,205.7,136.342,332.247C475.411,435.218,484.935,508.884,476.456,579.986Z" transform="translate(130.583 -46.852)" fill="url(#linear-gradient-6)" style="mix-blend-mode: soft-light;isolation: isolate"/>
            <path id="Path_3110" data-name="Path 3110" d="M275.632,84.082c-8.865,67.366-133.028,62.73-188.689,81.945C30.145,185.6-28.612,303.119-61.507,313.578c-19.561,6.227-44.635,6.227-61.741,5.219,11.062-1.464,28.3-6.007,52.419-18.517,47-24.358,93.135-140.133,161.912-150.592,68.756-10.44,149.712-13.04,174.091-47A128.407,128.407,0,0,0,275.632,84.082Z" transform="translate(138.653 -5.892)" fill="url(#linear-gradient-7)" style="mix-blend-mode: soft-light;isolation: isolate"/>
            <path id="Path_3111" data-name="Path 3111" d="M308.089,295.4c-33.242,8.938-66.3,13.225-92.658,17.419-71.982,11.5-80.681,81.8-145.116,90.846,2.106-5.53,3.224-16.354,3.663-30.421a81.157,81.157,0,0,0,35.552-8.445c31.467-15.842,41.577-62.4,103.539-66.54C244.993,296.133,278.474,297.3,308.089,295.4Z" transform="translate(351.607 226.597)" fill="url(#linear-gradient-7)" style="mix-blend-mode: soft-light;isolation: isolate"/>
          </g>
          <path id="Path_3112" data-name="Path 3112" d="M540.377,587.333c-13.792,115.9-75.462,225.026-209.2,240.448-192.406,22.2-416.242-144.419-488.131-271.97-8.756-15.514-15.258-30.44-19.177-44.4-36.174-128.63.641-277.025,161.893-377.706,161.269-100.664,331.5-93.265,331.5-93.265C342.529,41.505,363.5,46.3,381.03,54.2c84.289,37.894,89.252,147.074,113.355,254.076,5.971,26.576,13.132,53,22.986,78.171C539.331,442.565,548.856,516.231,540.377,587.333Z" transform="translate(188.885 -40.321)" fill="url(#linear-gradient-9)"/>
        </g>
        <g id="Group_421" data-name="Group 421" transform="translate(108.321 326.417)">
          <path id="Path_3113" data-name="Path 3113" d="M38.867,458.439a22.68,22.68,0,0,1-3.957,1.12c-19.969,3.864-108.657-26.664-111.772-54.981A104.381,104.381,0,0,1-64.649,387.35c6.6-7.632,15.73-15.949,26.851-20.685,24.362-10.373,94.359,11.278,101.025,35.138C69.458,424.078,56.811,451.679,38.867,458.439Z" transform="translate(203.81 -10.632)" fill="#8a77e5"/>
          <path id="Path_3114" data-name="Path 3114" d="M38.867,451.7a22.675,22.675,0,0,1-3.957,1.119C14.941,456.68-73.747,426.151-76.862,397.835a104.38,104.38,0,0,1,12.213-17.228c15.762-7.508,44.7-16.946,74.575-4.236C43.726,390.732,41.733,432.536,38.867,451.7Z" transform="translate(203.81 -3.888)" opacity="0.25" style="mix-blend-mode: overlay;isolation: isolate"/>
          <path id="Path_3115" data-name="Path 3115" d="M291.281,284.337c-19.269,20.256-234.169,28.9-366.589-39.8a253.134,253.134,0,0,1-45.864-30.02,189.229,189.229,0,0,1-16.136-15.092s10.568-5.019,13.9-3.333c1.374.676,10.459,9.468,29.508,21.374,7.508,4.69,16.558,9.854,27.309,15.2C-38.879,246.441.078,261.386,52.572,272.137c99.563,20.405,199.549,9.342,230.082,10.715C287.013,283.073,289.943,283.531,291.281,284.337Z" transform="translate(137.308 -195.745)" fill="#8a77e5"/>
          <path id="Path_3116" data-name="Path 3116" d="M301.536,493.571c-.6,8-1.592,14.214-3.022,17.967-7.015,18.444-96.138,46.54-197,36.01h-.036c-2.949-.311-5.9-.641-8.846-1.025-1.485-.185-2.968-.367-4.452-.588q-1.566-.192-3.131-.439c-.916-.128-1.831-.275-2.747-.4-1.21-.183-2.436-.384-3.663-.586-1.155-.183-2.308-.365-3.463-.567-1.079-.183-2.178-.367-3.259-.586-1.556-.275-3.131-.569-4.707-.861-1.741-.33-3.48-.678-5.221-1.063q-6.291-1.292-12.547-2.821c-2.033-.493-4.066-1.008-6.1-1.521-.074-.019-.128-.036-.183-.055q-3.021-.8-6.044-1.649c-.074-.019-.164-.036-.237-.055-2.346-.659-4.671-1.338-7.015-2.052q-5.715-1.73-11.394-3.682h-.019c-42.327-14.506-83.39-37.894-118.19-73.574C-130.073,404.191-137.308,197.5-137.308,197.5a189.229,189.229,0,0,0,16.136,15.092,253.132,253.132,0,0,0,45.864,30.02c132.421,68.7,347.32,60.057,366.589,39.8C291.281,282.41,306.005,435.438,301.536,493.571Z" transform="translate(137.308 -193.818)" fill="url(#linear-gradient-10)"/>
          <path id="Path_3117" data-name="Path 3117" d="M-47.686,287.177c34.21-8.533,70.764,14.716,70.125,70.19-.6,51.793-47.676,54.281-70.089,34.174C-69.4,372.03-88.089,297.255-47.686,287.177Z" transform="translate(209.728 -97.043)" opacity="0.25" style="mix-blend-mode: overlay;isolation: isolate"/>
          <path id="Path_3118" data-name="Path 3118" d="M-50.026,285.924c34.21-8.535,70.764,14.716,70.125,70.188-.6,51.793-47.676,54.281-70.089,34.176C-71.74,370.776-90.429,296-50.026,285.924Z" transform="translate(207.154 -98.422)" fill="#6c5ed1"/>
          <path id="Path_3119" data-name="Path 3119" d="M-49.252,287.249c34.659-6.46,69.751,18.944,65.778,74.279-3.709,51.662-50.852,51.316-72.015,29.9C-76.027,370.643-90.188,294.881-49.252,287.249Z" transform="translate(205.289 -96.157)" fill="#8a77e5"/>
          <path id="Path_3120" data-name="Path 3120" d="M15.505,424.191a382.571,382.571,0,0,1-71.618-14.267l-2.554-87.91a8.879,8.879,0,0,1,4.736-11.091c7.475-3.894,18.036.811,20.248,15.546C-31.472,341.173-9.136,415.064,15.505,424.191Z" transform="translate(223.277 -70.464)" opacity="0.25" style="mix-blend-mode: overlay;isolation: isolate"/>
          <path id="Path_3121" data-name="Path 3121" d="M-9.188,459.093a23.681,23.681,0,0,1-4.049,10.062c-6.729,9.285-20,11.31-32.274,8.443-15.327-3.583-20.716-123.174-18-144.045a15.229,15.229,0,0,1,.279-1.775c3.333-14.424,13.708-19.626,13.708-19.626s14.8-1.838,14.8,16.293c-1.838,4.828-6.292,6.666-7.382,11.463C-43.236,344.736-6.229,441.338-9.188,459.093Z" transform="translate(217.753 -67.734)" fill="url(#linear-gradient-11)"/>
          <path id="Path_3122" data-name="Path 3122" d="M-82.575,250.561S-17.528,282.31,64.86,276.6" transform="translate(197.524 -135.437)" fill="none" stroke="#000" stroke-linecap="round" stroke-linejoin="round" stroke-width="4.45" opacity="0.15" style="mix-blend-mode: overlay;isolation: isolate"/>
          <path id="Path_3123" data-name="Path 3123" d="M-13.237,457.917c-6.729,9.285-20,11.309-32.274,8.443-15.327-3.583-20.716-123.174-18-144.045,1.962,1,4.454,4.455,7.04,13.895,5.544,20.4,18.6,119.528,42.21,121.584C-13.922,457.824-13.58,457.856-13.237,457.917Z" transform="translate(217.753 -56.496)" opacity="0.25" style="mix-blend-mode: overlay;isolation: isolate"/>
          <path id="Path_3124" data-name="Path 3124" d="M-69.487,338.377s-12.068,2.81-5.406,38.891S-51.02,451.1-81,466.089" transform="translate(199.257 -38.824)" fill="none" stroke="#c14aff" stroke-linecap="round" stroke-linejoin="round" stroke-width="1.483"/>
          <path id="Path_3125" data-name="Path 3125" d="M-85.308,330.32S-100.3,334.585-100.3,354.8s37.2,62.411,26.647,90.726" transform="translate(178.027 -47.688)" fill="none" stroke="#c14aff" stroke-linecap="round" stroke-linejoin="round" stroke-width="1.483"/>
          <path id="Path_3126" data-name="Path 3126" d="M-32.305,364.055S28.581,360.6,69.571,394.276,92.055,497.353,80.952,498.464-11.192,483.845-27.3,476.442s-39.425-25.723-39.425-25.723" transform="translate(214.962 -10.684)" opacity="0.25" style="mix-blend-mode: overlay;isolation: isolate"/>
        </g>
        <g id="Group_422" data-name="Group 422" transform="translate(562.474 368.412)">
          <path id="Path_3127" data-name="Path 3127" d="M154.516,295.757l-44.858,62.926-12.71-46.727c-.529-4.581,2.9-13.426,6.824-19.782l1,.063,3.272.248,35.233,2.461v.031l3.333.218Z" transform="translate(-59.181 -131.651)" opacity="0.25" style="mix-blend-mode: overlay;isolation: isolate"/>
          <path id="Path_3128" data-name="Path 3128" d="M157.2,312.31s-.437.187-1.245.561c-1.371.624-3.77,1.777-6.824,3.333-11.12,5.639-30.684,16.917-38.442,29.438-.466.748-.872,1.464-1.245,2.212-1.619-2.8-3.146-5.481-4.547-8.035-8.1-14.456-13.395-25.2-16.6-32.087.031-.155.031-.281.061-.405-.653-1.214-1.308-2.461-1.9-3.707-1.029-2.275-1.621-3.77-1.9-4.486a1.766,1.766,0,0,1-.155-.374.1.1,0,0,1-.032-.063s-.031-.124-.126-.405c-.311-.9-1.09-3.27-2.117-6.416a.228.228,0,0,0-.032-.124c-8.817-31.62,1.527-69.375,22.367-76.01,0,0,9.438,1.5,21.93,24.266,9.5,17.32,22.4,50.155,28.006,64.858C156.142,309.476,157.2,312.31,157.2,312.31Z" transform="translate(-78.937 -215.741)" fill="#0d003d"/>
          <path id="Path_3129" data-name="Path 3129" d="M157.081,284.356a88.267,88.267,0,0,1-3.333,18.41c-7.384,25.918-23.833,50.934-22.772,58.473,4.018,14.017-1.932,42.739-3.333,49.686a18.167,18.167,0,0,1-1,3.4c-1.527,3.581-3.583,3.675-3.583,3.675a19.041,19.041,0,0,1-1.651,2.68v.061a28.035,28.035,0,0,1-3.551,4.236,21,21,0,0,1-2.148,1.9,8.749,8.749,0,0,1-1.777,2.772,13.7,13.7,0,0,1-1.869,1.714,21.436,21.436,0,0,1-4.144,2.585l-.029.063c-.529.685-5.95,7.632-8.972,3.27-3.209-4.578-5.826-49.531-5.826-49.531s-8.348,14.7-10,14.829-2.212-11.652-.966-16.512a19.663,19.663,0,0,1,3.022-5.576v-.032c3.083-4.36,7.445-9.438,8.94-13.24,1.806-4.547,9.72-48.97,12.71-65.916.466-2.709.809-4.734,1-5.763v-.031c.095-.5.124-.748.124-.748a49.344,49.344,0,0,1,9.253-10.5c9.159-8.1,21.306-14.953,29.188-18.942,3.054-1.556,5.452-2.709,6.824-3.333C156.52,268.812,157.547,276.445,157.081,284.356Z" transform="translate(-76.168 -164.86)" fill="url(#linear-gradient-12)"/>
          <path id="Path_3130" data-name="Path 3130" d="M143.6,265.622s-.437.187-1.245.561c-1.371.624-3.77,1.777-6.824,3.333-11.12,5.639-30.684,16.917-38.442,29.438-.466.748-.872,1.464-1.245,2.212-1.619-2.8-3.146-5.481-4.547-8.035,5.171-8.506,20.34-28.878,49.5-34.953C142.543,262.789,143.6,265.622,143.6,265.622Z" transform="translate(-65.337 -169.054)" fill="url(#linear-gradient-13)"/>
          <path id="Path_3131" data-name="Path 3131" d="M143.28,284.356a88.268,88.268,0,0,1-3.333,18.41c-.437-11.244-6.076-16.728-17.633-16.354-12.21.374-22.772,5.7-28.317,9.1.094-.5.124-.748.124-.748a49.346,49.346,0,0,1,9.253-10.5c9.159-8.1,21.306-14.953,29.188-18.942,3.054-1.556,5.452-2.709,6.824-3.333C142.719,268.812,143.746,276.445,143.28,284.356Z" transform="translate(-62.367 -164.86)" opacity="0.25" style="mix-blend-mode: overlay;isolation: isolate"/>
          <path id="Path_3132" data-name="Path 3132" d="M92.684,351.049c-3.894,6.945-9.47,8.846-9.47,8.846v-.032c3.083-4.36,7.445-9.438,8.941-13.24,1.806-4.547,9.72-48.97,12.71-65.916a5.9,5.9,0,0,1,2.025,3.427C108.385,290.709,96.577,344.1,92.684,351.049Z" transform="translate(-74.231 -144.265)" fill="#fff" opacity="0.25" style="mix-blend-mode: overlay;isolation: isolate"/>
        </g>
      </g>
    </g>
  </g>
</svg>
