<svg xmlns="http://www.w3.org/2000/svg" width="95" height="95" viewBox="0 0 95 95">
  <g id="phone" transform="translate(32 34.888)">
    <g id="Ellipse_76" data-name="Ellipse 76" transform="translate(-32 -34.888)" fill="#3b227d" stroke="#e80766" stroke-width="3">
      <circle cx="47.5" cy="47.5" r="47.5" stroke="none"/>
      <circle cx="47.5" cy="47.5" r="46" fill="none"/>
    </g>
    <path id="Path_1672" data-name="Path 1672" d="M37.293,51.889A14.456,14.456,0,0,1,32.333,51a52.888,52.888,0,0,1-19.2-12.241A52.884,52.884,0,0,1,.887,19.556,14.352,14.352,0,0,1,.154,12.5,14.718,14.718,0,0,1,7.718,1.728,14.449,14.449,0,0,1,14.636,0a1.622,1.622,0,0,1,1.585,1.282l2.545,11.877a1.622,1.622,0,0,1-.439,1.486l-4.349,4.349A42.681,42.681,0,0,0,32.9,37.91l4.349-4.349a1.622,1.622,0,0,1,1.486-.439l11.877,2.545a1.621,1.621,0,0,1,1.282,1.585,14.448,14.448,0,0,1-1.728,6.918,14.718,14.718,0,0,1-10.773,7.564,14.423,14.423,0,0,1-2.095.154ZM13.341,3.314A11.362,11.362,0,0,0,3.935,18.449,49.181,49.181,0,0,0,33.44,47.955a11.362,11.362,0,0,0,15.135-9.406l-9.662-2.07L34.372,41.02a1.621,1.621,0,0,1-1.836.321A45.913,45.913,0,0,1,10.548,19.353a1.621,1.621,0,0,1,.321-1.836l4.542-4.542Z" transform="translate(-8 -12)" fill="#e80766"/>
  </g>
</svg>
