<svg xmlns="http://www.w3.org/2000/svg" width="51.715" height="67.879" viewBox="0 0 51.715 67.879">
  <g id="pin" transform="translate(-60.962 0)">
    <g id="Group_263" data-name="Group 263" transform="translate(60.962 0)">
      <g id="Group_262" data-name="Group 262" transform="translate(0 0)">
        <path id="Path_1503" data-name="Path 1503" d="M111.419,17.644A25.193,25.193,0,0,0,95.014,1.237,26.385,26.385,0,0,0,71.491,5.006,25.976,25.976,0,0,0,60.962,25.833a25.636,25.636,0,0,0,5.162,15.5l20.7,26.543,20.7-26.545A26.14,26.14,0,0,0,111.419,17.644Zm-24.6,22.113a13.925,13.925,0,1,1,13.925-13.925A13.941,13.941,0,0,1,86.822,39.757Z" transform="translate(-60.962 0)" fill="#e80766"/>
      </g>
    </g>
    <g id="Group_265" data-name="Group 265" transform="translate(76.876 15.913)">
      <g id="Group_264" data-name="Group 264">
        <path id="Path_1504" data-name="Path 1504" d="M190.944,120.027a9.933,9.933,0,1,0,9.946,9.92A9.935,9.935,0,0,0,190.944,120.027Z" transform="translate(-180.998 -120.027)" fill="#e80766"/>
      </g>
    </g>
  </g>
</svg>
