<svg xmlns="http://www.w3.org/2000/svg" width="40" height="40" viewBox="0 0 59.414 59.414">
  <g id="pinterest-social-visual-website-logotype" opacity="0.8">
    <g id="Group_10" data-name="Group 10" transform="translate(0 0)">
      <path id="Path_62" data-name="Path 62" d="M30.909,14.641c0-6.16-5.112-11.9-12.879-11.9-9.668,0-14.54,7.076-14.54,12.977,0,3.573,1.323,6.752,4.167,7.934a.7.7,0,0,0,1.018-.519c.092-.365.316-1.285.413-1.666A1.022,1.022,0,0,0,8.8,20.309a6.073,6.073,0,0,1-1.342-4.075A9.735,9.735,0,0,1,17.471,6.287c5.463,0,8.467,3.408,8.467,7.959,0,5.99-2.6,11.043-6.452,11.043a3.194,3.194,0,0,1-3.211-4c.61-2.63,1.8-5.472,1.8-7.37,0-1.7-.894-3.119-2.744-3.119-2.177,0-3.924,2.3-3.924,5.377a8.107,8.107,0,0,0,.651,3.287S9.825,29.1,9.436,30.782a18.528,18.528,0,0,0-.359,4.651c.149,1.28,1.388,2.323,2.463.918A17.412,17.412,0,0,0,13.531,32c.251-.924,1.431-5.709,1.431-5.709a5.8,5.8,0,0,0,4.972,2.59C26.472,28.876,30.909,22.788,30.909,14.641Z" transform="translate(12.509 9.827)" fill="#fff"/>
      <path id="Path_63" data-name="Path 63" d="M59.414,29.707A29.707,29.707,0,1,0,29.707,59.414,29.707,29.707,0,0,0,59.414,29.707Zm-56.713,0A27.006,27.006,0,1,1,29.707,56.713,27.006,27.006,0,0,1,2.7,29.707Z" transform="translate(0 0)" fill="#fff"/>
    </g>
  </g>
</svg>
