<svg xmlns="http://www.w3.org/2000/svg" width="47.086" height="58.2" viewBox="0 0 47.086 58.2">
  <g id="place" transform="translate(-48.886)">
    <g id="Group_300" data-name="Group 300" transform="translate(48.886)">
      <g id="Group_299" data-name="Group 299">
        <path id="Path_1667" data-name="Path 1667" d="M91.748,10.119a23.5,23.5,0,0,0-38.636,0,23.5,23.5,0,0,0-2.736,21.654,18.509,18.509,0,0,0,3.411,5.632L70.88,57.484a2.033,2.033,0,0,0,3.1,0L91.068,37.411a18.527,18.527,0,0,0,3.411-5.625A23.507,23.507,0,0,0,91.748,10.119Zm-1.08,20.242a14.516,14.516,0,0,1-2.684,4.4l-.01.011L72.43,53.026,56.876,34.757a14.525,14.525,0,0,1-2.689-4.41,19.441,19.441,0,0,1,2.272-17.914,19.429,19.429,0,0,1,31.94,0A19.444,19.444,0,0,1,90.668,30.361Z" transform="translate(-48.886 0)" fill="#e80766"/>
      </g>
    </g>
    <g id="Group_302" data-name="Group 302" transform="translate(61.034 12.074)">
      <g id="Group_301" data-name="Group 301">
        <path id="Path_1668" data-name="Path 1668" d="M167.15,106.219a11.4,11.4,0,1,0,11.4,11.4A11.409,11.409,0,0,0,167.15,106.219Zm0,18.722a7.326,7.326,0,1,1,7.326-7.326A7.334,7.334,0,0,1,167.15,124.941Z" transform="translate(-155.754 -106.219)" fill="#e80766"/>
      </g>
    </g>
  </g>
</svg>
