<svg xmlns="http://www.w3.org/2000/svg" xmlns:xlink="http://www.w3.org/1999/xlink" width="588" height="487.369" viewBox="0 0 588 487.369">
  <defs>
    <filter id="Rectangle_20" x="0" y="0" width="588" height="287" filterUnits="userSpaceOnUse">
      <feOffset dy="1" input="SourceAlpha"/>
      <feGaussianBlur stdDeviation="30" result="blur"/>
      <feFlood flood-color="#1f1f1f" flood-opacity="0.161"/>
      <feComposite operator="in" in2="blur"/>
      <feComposite in="SourceGraphic"/>
    </filter>
    <linearGradient id="linear-gradient" x1="1.244" y1="0.897" x2="0.14" y2="0.096" gradientUnits="objectBoundingBox">
      <stop offset="0" stop-color="#fff" stop-opacity="0"/>
      <stop offset="0.339" stop-color="#5b76c9"/>
      <stop offset="1" stop-color="#e963d6"/>
    </linearGradient>
    <linearGradient id="linear-gradient-2" x1="0.5" y1="-0.109" x2="0.5" y2="0.885" gradientUnits="objectBoundingBox">
      <stop offset="0" stop-color="#127fc2"/>
      <stop offset="1" stop-color="#e963d6" stop-opacity="0.502"/>
    </linearGradient>
    <linearGradient id="linear-gradient-3" x1="0.5" x2="0.5" y2="1" gradientUnits="objectBoundingBox">
      <stop offset="0" stop-color="#6d4ff7"/>
      <stop offset="0" stop-color="#7650f7"/>
      <stop offset="1" stop-color="#e356fc"/>
      <stop offset="1" stop-color="#37287c"/>
    </linearGradient>
    <linearGradient id="linear-gradient-4" y1="0.5" x2="1" y2="0.5" gradientUnits="objectBoundingBox">
      <stop offset="0" stop-color="#127fc2"/>
      <stop offset="1" stop-color="#e963d6"/>
    </linearGradient>
    <linearGradient id="linear-gradient-5" x1="0.5" x2="0.5" y2="1" gradientUnits="objectBoundingBox">
      <stop offset="0" stop-color="#8e28f6"/>
      <stop offset="1" stop-color="#8d25f4"/>
    </linearGradient>
    <filter id="Ellipse_30" x="133" y="215" width="258" height="258" filterUnits="userSpaceOnUse">
      <feOffset dx="3" dy="3" input="SourceAlpha"/>
      <feGaussianBlur stdDeviation="10" result="blur-2"/>
      <feFlood flood-opacity="0.161"/>
      <feComposite operator="in" in2="blur-2"/>
      <feComposite in="SourceGraphic"/>
    </filter>
    <linearGradient id="linear-gradient-6" x1="0.146" y1="0.854" x2="0.854" y2="0.146" gradientUnits="objectBoundingBox">
      <stop offset="0" stop-color="#364aff"/>
      <stop offset="1" stop-color="#fc54ff"/>
    </linearGradient>
    <radialGradient id="radial-gradient" cx="0.5" cy="0.5" r="0.505" gradientTransform="translate(0.673 -0.38) rotate(45) scale(1 1.488)" gradientUnits="objectBoundingBox">
      <stop offset="0.095" stop-color="#8d00db" stop-opacity="0.659"/>
      <stop offset="0.338" stop-color="#b31de7" stop-opacity="0.482"/>
      <stop offset="0.628" stop-color="#db3bf4" stop-opacity="0.271"/>
      <stop offset="0.858" stop-color="#f34dfc" stop-opacity="0.102"/>
      <stop offset="1" stop-color="#fc54ff" stop-opacity="0"/>
    </radialGradient>
    <radialGradient id="radial-gradient-2" cx="0.76" cy="0.241" r="0.505" gradientUnits="objectBoundingBox">
      <stop offset="0" stop-color="#fff" stop-opacity="0.659"/>
      <stop offset="0.019" stop-color="#ffefff" stop-opacity="0.647"/>
      <stop offset="0.07" stop-color="#fecbff" stop-opacity="0.616"/>
      <stop offset="0.128" stop-color="#feabff" stop-opacity="0.576"/>
      <stop offset="0.191" stop-color="#fd8fff" stop-opacity="0.533"/>
      <stop offset="0.263" stop-color="#fd79ff" stop-opacity="0.486"/>
      <stop offset="0.347" stop-color="#fc68ff" stop-opacity="0.431"/>
      <stop offset="0.451" stop-color="#fc5dff" stop-opacity="0.365"/>
      <stop offset="0.596" stop-color="#fc56ff" stop-opacity="0.267"/>
      <stop offset="1" stop-color="#fc54ff" stop-opacity="0"/>
    </radialGradient>
    <radialGradient id="radial-gradient-3" cx="0.553" cy="0.22" r="0.505" xlink:href="#radial-gradient-2"/>
    <radialGradient id="radial-gradient-4" cx="0.782" cy="0.446" r="0.505" xlink:href="#radial-gradient-2"/>
    <linearGradient id="linear-gradient-7" x1="-0.564" y1="-0.127" x2="0.965" y2="-1.451" gradientUnits="objectBoundingBox">
      <stop offset="0" stop-color="#fda0ff"/>
      <stop offset="0.105" stop-color="#fdb0ff"/>
      <stop offset="0.358" stop-color="#fed2ff"/>
      <stop offset="0.598" stop-color="#ffebff"/>
      <stop offset="0.819" stop-color="#fffaff"/>
      <stop offset="1" stop-color="#fff"/>
    </linearGradient>
    <linearGradient id="linear-gradient-8" x1="-0.511" y1="-0.332" x2="0.499" y2="-1.607" gradientUnits="objectBoundingBox">
      <stop offset="0" stop-color="#fda0ff"/>
      <stop offset="0.015" stop-color="#fda3ff"/>
      <stop offset="0.197" stop-color="#fec4ff"/>
      <stop offset="0.385" stop-color="#fedeff"/>
      <stop offset="0.577" stop-color="#fff0ff"/>
      <stop offset="0.778" stop-color="#fffbff"/>
      <stop offset="1" stop-color="#fff"/>
    </linearGradient>
    <linearGradient id="linear-gradient-9" x1="-3.244" y1="1.601" x2="-4.629" y2="0" xlink:href="#linear-gradient-8"/>
    <linearGradient id="linear-gradient-10" x1="-4.666" y1="1.511" x2="-5.856" y2="0.571" xlink:href="#linear-gradient-8"/>
    <linearGradient id="linear-gradient-11" x1="-0.22" y1="0.88" x2="0.777" y2="-0.119" gradientUnits="objectBoundingBox">
      <stop offset="0" stop-color="#b31de7"/>
      <stop offset="0.632" stop-color="#e16ef6"/>
      <stop offset="1" stop-color="#fda0ff"/>
    </linearGradient>
    <linearGradient id="linear-gradient-12" x1="-0.318" y1="1.058" x2="0.767" y2="-0.025" gradientUnits="objectBoundingBox">
      <stop offset="0" stop-color="#b31de7"/>
      <stop offset="0.216" stop-color="#c63fed"/>
      <stop offset="0.577" stop-color="#e473f7"/>
      <stop offset="0.85" stop-color="#f694fd"/>
      <stop offset="1" stop-color="#fda0ff"/>
    </linearGradient>
    <linearGradient id="linear-gradient-13" x1="0.5" y1="1.251" x2="0.5" y2="-0.564" xlink:href="#linear-gradient-8"/>
    <linearGradient id="linear-gradient-15" x1="0.022" y1="0.954" x2="0.98" y2="0.04" xlink:href="#linear-gradient-8"/>
  </defs>
  <g id="Group_26" data-name="Group 26" transform="translate(90 122.555)">
    <g id="DATA" transform="translate(0 -33.555)">
      <g transform="matrix(1, 0, 0, 1, -90, -89)" filter="url(#Rectangle_20)">
        <rect id="Rectangle_20-2" data-name="Rectangle 20" width="408" height="107" rx="15" transform="translate(90 89)" fill="#7c44fa"/>
      </g>
    </g>
    <path id="Path_69" data-name="Path 69" d="M376.831,297.688c67.384,10.7,105.084,64.463,157.73,93.664,47.294,26.232,120.694,40.2,162.782,15.394V54.888h-407.6V315.623C314.335,301.636,342.241,291.107,376.831,297.688Z" transform="translate(-289.73 -54.888)" opacity="0.18" fill="url(#linear-gradient)"/>
    <g id="Group_16" data-name="Group 16" transform="translate(0 0.002)">
      <path id="Path_70" data-name="Path 70" d="M697.336,54.889v263.23c-50.069,39.153-124.719,47.95-189.146,21.139-33.958-13.444-59.272-36.737-79.663-62.182-3.138-3.862-6.125-7.8-9.027-11.739-12.479-17.069-24.405-34.637-38.263-50.6-9.317-10.083-18.6-20.877-28.684-31.091-1.759-1.786-3.516-3.544-5.333-5.278-16.052-15.493-34.279-28.991-57.485-35.53V54.889Z" transform="translate(-289.736 -54.889)" fill="url(#linear-gradient-2)"/>
    </g>
    <path id="Path_71" data-name="Path 71" d="M289.736,54.889v92.232A221.1,221.1,0,0,1,357.8,149.58c76.175,10.7,124.032,85.52,191.418,124.736,51.162,29.489,107.2,23.765,148.119-5.058V54.889Z" transform="translate(-289.736 -54.887)" fill="url(#linear-gradient-3)"/>
    <g id="Group_17" data-name="Group 17" transform="translate(22.122 127.358)">
      <path id="Path_72" data-name="Path 72" d="M307.762,135.523a7.724,7.724,0,1,1,7.726-7.723A7.733,7.733,0,0,1,307.762,135.523Zm0-13.29a5.566,5.566,0,1,0,5.565,5.567A5.573,5.573,0,0,0,307.762,122.233Z" transform="translate(-300.036 -120.074)" fill="#fff"/>
    </g>
    <g id="Group_18" data-name="Group 18" transform="translate(205.647 211.246)">
      <path id="Path_73" data-name="Path 73" d="M390.788,173.483a5.3,5.3,0,1,1,5.3-5.3A5.309,5.309,0,0,1,390.788,173.483Zm0-9.124a3.821,3.821,0,1,0,3.821,3.819A3.825,3.825,0,0,0,390.788,164.359Z" transform="translate(-385.485 -162.877)" fill="#fff"/>
    </g>
    <g id="Group_19" data-name="Group 19" transform="translate(364.129 11.462)">
      <path id="Path_74" data-name="Path 74" d="M472.363,60.3l2.594,1.4a.416.416,0,0,1,.2.636l-3.49,6.476a.164.164,0,0,0,.077.253l6.351,3.421a.418.418,0,0,1,.193.636l-1.4,2.6a.415.415,0,0,1-.636.191l-6.349-3.419a.165.165,0,0,0-.256.075l-3.488,6.476a.413.413,0,0,1-.634.189l-2.6-1.4a.414.414,0,0,1-.189-.634l3.49-6.476a.166.166,0,0,0-.077-.253l-6.6-3.555a.413.413,0,0,1-.187-.636l1.4-2.6a.411.411,0,0,1,.631-.189l6.6,3.555a.16.16,0,0,0,.249-.077l3.488-6.476A.415.415,0,0,1,472.363,60.3Z" transform="translate(-459.274 -60.225)" fill="#fff"/>
    </g>
    <g id="Group_20" data-name="Group 20" transform="translate(345.925 350.171)">
      <path id="Path_75" data-name="Path 75" d="M458.88,234.126l1.6.866a.254.254,0,0,1,.12.391l-2.152,4a.1.1,0,0,0,.045.157l3.924,2.113a.253.253,0,0,1,.116.391l-.861,1.6a.261.261,0,0,1-.4.118l-3.92-2.111a.1.1,0,0,0-.159.047l-2.152,4a.256.256,0,0,1-.393.118l-1.607-.866a.254.254,0,0,1-.114-.391l2.154-4a.105.105,0,0,0-.047-.157l-4.076-2.2a.26.26,0,0,1-.118-.4l.863-1.6a.258.258,0,0,1,.393-.118l4.077,2.2a.1.1,0,0,0,.157-.047l2.152-4A.259.259,0,0,1,458.88,234.126Z" transform="translate(-450.798 -234.079)" fill="url(#linear-gradient-4)"/>
    </g>
    <g id="Group_25" data-name="Group 25" transform="translate(20.193 5.44)">
      <g id="Group_21" data-name="Group 21">
        <path id="Path_76" data-name="Path 76" d="M303.225,59.464a2.044,2.044,0,1,0-2.045,2.043A2.045,2.045,0,0,0,303.225,59.464Z" transform="translate(-299.138 -57.421)" fill="#fff"/>
        <path id="Path_77" data-name="Path 77" d="M309.854,59.464a2.042,2.042,0,1,0-2.042,2.043A2.043,2.043,0,0,0,309.854,59.464Z" transform="translate(-291.527 -57.421)" fill="#fff"/>
        <path id="Path_78" data-name="Path 78" d="M316.484,59.464a2.043,2.043,0,1,0-2.042,2.043A2.042,2.042,0,0,0,316.484,59.464Z" transform="translate(-283.917 -57.421)" fill="#fff"/>
        <path id="Path_79" data-name="Path 79" d="M323.117,59.464a2.045,2.045,0,1,0-2.04,2.043A2.044,2.044,0,0,0,323.117,59.464Z" transform="translate(-276.309 -57.421)" fill="#fff"/>
        <path id="Path_80" data-name="Path 80" d="M329.745,59.464a2.043,2.043,0,1,0-2.043,2.043A2.043,2.043,0,0,0,329.745,59.464Z" transform="translate(-268.697 -57.421)" fill="#fff"/>
        <path id="Path_81" data-name="Path 81" d="M336.377,59.464a2.044,2.044,0,1,0-2.047,2.043A2.044,2.044,0,0,0,336.377,59.464Z" transform="translate(-261.087 -57.421)" fill="#fff"/>
        <path id="Path_82" data-name="Path 82" d="M343.005,59.464a2.043,2.043,0,1,0-2.04,2.043A2.04,2.04,0,0,0,343.005,59.464Z" transform="translate(-253.477 -57.421)" fill="#fff"/>
      </g>
      <g id="Group_22" data-name="Group 22" transform="translate(0 11.33)">
        <path id="Path_83" data-name="Path 83" d="M303.225,64.741a2.044,2.044,0,1,0-2.045,2.043A2.047,2.047,0,0,0,303.225,64.741Z" transform="translate(-299.138 -62.696)" fill="#fff"/>
        <path id="Path_84" data-name="Path 84" d="M309.854,64.741a2.042,2.042,0,1,0-2.042,2.043A2.045,2.045,0,0,0,309.854,64.741Z" transform="translate(-291.527 -62.696)" fill="#fff"/>
        <path id="Path_85" data-name="Path 85" d="M316.484,64.741a2.043,2.043,0,1,0-2.042,2.043A2.044,2.044,0,0,0,316.484,64.741Z" transform="translate(-283.917 -62.696)" fill="#fff"/>
        <path id="Path_86" data-name="Path 86" d="M323.117,64.741a2.045,2.045,0,1,0-2.04,2.043A2.046,2.046,0,0,0,323.117,64.741Z" transform="translate(-276.309 -62.696)" fill="#fff"/>
        <path id="Path_87" data-name="Path 87" d="M329.745,64.741a2.043,2.043,0,1,0-2.043,2.043A2.045,2.045,0,0,0,329.745,64.741Z" transform="translate(-268.697 -62.696)" fill="#fff"/>
        <path id="Path_88" data-name="Path 88" d="M336.377,64.741a2.044,2.044,0,1,0-2.047,2.043A2.046,2.046,0,0,0,336.377,64.741Z" transform="translate(-261.087 -62.696)" fill="#fff"/>
        <path id="Path_89" data-name="Path 89" d="M343.005,64.741a2.043,2.043,0,1,0-2.04,2.043A2.042,2.042,0,0,0,343.005,64.741Z" transform="translate(-253.477 -62.696)" fill="#fff"/>
      </g>
      <g id="Group_23" data-name="Group 23" transform="translate(0 22.661)">
        <path id="Path_90" data-name="Path 90" d="M303.225,70.017a2.044,2.044,0,1,0-2.045,2.043A2.045,2.045,0,0,0,303.225,70.017Z" transform="translate(-299.138 -67.972)" fill="#fff"/>
        <path id="Path_91" data-name="Path 91" d="M309.854,70.017a2.042,2.042,0,1,0-2.042,2.043A2.044,2.044,0,0,0,309.854,70.017Z" transform="translate(-291.527 -67.972)" fill="#fff"/>
        <path id="Path_92" data-name="Path 92" d="M316.484,70.017a2.043,2.043,0,1,0-2.042,2.043A2.042,2.042,0,0,0,316.484,70.017Z" transform="translate(-283.917 -67.972)" fill="#fff"/>
        <path id="Path_93" data-name="Path 93" d="M323.117,70.017a2.045,2.045,0,1,0-2.04,2.043A2.045,2.045,0,0,0,323.117,70.017Z" transform="translate(-276.309 -67.972)" fill="#fff"/>
        <path id="Path_94" data-name="Path 94" d="M329.745,70.017a2.043,2.043,0,1,0-2.043,2.043A2.044,2.044,0,0,0,329.745,70.017Z" transform="translate(-268.697 -67.972)" fill="#fff"/>
        <path id="Path_95" data-name="Path 95" d="M336.377,70.017a2.044,2.044,0,1,0-2.047,2.043A2.044,2.044,0,0,0,336.377,70.017Z" transform="translate(-261.087 -67.972)" fill="#fff"/>
        <path id="Path_96" data-name="Path 96" d="M343.005,70.017a2.043,2.043,0,1,0-2.04,2.043A2.04,2.04,0,0,0,343.005,70.017Z" transform="translate(-253.477 -67.972)" fill="#fff"/>
      </g>
      <g id="Group_24" data-name="Group 24" transform="translate(0 33.993)">
        <path id="Path_97" data-name="Path 97" d="M303.225,75.291a2.044,2.044,0,1,0-2.045,2.043A2.045,2.045,0,0,0,303.225,75.291Z" transform="translate(-299.138 -73.248)" fill="#fff"/>
        <path id="Path_98" data-name="Path 98" d="M309.854,75.291a2.042,2.042,0,1,0-2.042,2.043A2.043,2.043,0,0,0,309.854,75.291Z" transform="translate(-291.527 -73.248)" fill="#fff"/>
        <path id="Path_99" data-name="Path 99" d="M316.484,75.291a2.043,2.043,0,1,0-2.042,2.043A2.042,2.042,0,0,0,316.484,75.291Z" transform="translate(-283.917 -73.248)" fill="#fff"/>
        <path id="Path_100" data-name="Path 100" d="M323.117,75.291a2.045,2.045,0,1,0-2.04,2.043A2.044,2.044,0,0,0,323.117,75.291Z" transform="translate(-276.309 -73.248)" fill="#fff"/>
        <path id="Path_101" data-name="Path 101" d="M329.745,75.291a2.043,2.043,0,1,0-2.043,2.043A2.043,2.043,0,0,0,329.745,75.291Z" transform="translate(-268.697 -73.248)" fill="#fff"/>
        <path id="Path_102" data-name="Path 102" d="M336.377,75.291a2.044,2.044,0,1,0-2.047,2.043A2.044,2.044,0,0,0,336.377,75.291Z" transform="translate(-261.087 -73.248)" fill="#fff"/>
        <path id="Path_103" data-name="Path 103" d="M343.005,75.291a2.043,2.043,0,1,0-2.04,2.043A2.04,2.04,0,0,0,343.005,75.291Z" transform="translate(-253.477 -73.248)" fill="#fff"/>
      </g>
    </g>
    <g transform="matrix(1, 0, 0, 1, -90, -122.56)" filter="url(#Ellipse_30)">
      <circle id="Ellipse_30-2" data-name="Ellipse 30" cx="99" cy="99" r="99" transform="translate(160 242)" fill="url(#linear-gradient-5)"/>
    </g>
    <g id="magic-wand" transform="translate(70.443 108.467)">
      <ellipse id="Ellipse_31" data-name="Ellipse 31" cx="105" cy="104.5" rx="105" ry="104.5" transform="translate(-0.443 -0.023)" fill="url(#linear-gradient-6)"/>
      <ellipse id="Ellipse_32" data-name="Ellipse 32" cx="105" cy="104.5" rx="105" ry="104.5" transform="translate(-0.443 -0.023)" fill="url(#radial-gradient)"/>
      <ellipse id="Ellipse_33" data-name="Ellipse 33" cx="105" cy="104.5" rx="105" ry="104.5" transform="translate(-0.443 -0.023)" fill="url(#radial-gradient-2)"/>
      <ellipse id="Ellipse_34" data-name="Ellipse 34" cx="105" cy="104.5" rx="105" ry="104.5" transform="translate(-0.443 -0.023)" fill="url(#radial-gradient-3)"/>
      <ellipse id="Ellipse_35" data-name="Ellipse 35" cx="105" cy="104.5" rx="105" ry="104.5" transform="translate(-0.443 -0.023)" fill="url(#radial-gradient-4)"/>
      <path id="Path_108" data-name="Path 108" d="M81.655,357.658q4.291,4.393,8.684,8.684a6.389,6.389,0,0,0,8.89-.151q11.177-11.042,22.329-22.108-2.248-10.951-4.4-22.1Q99.392,339.806,81.655,357.658Z" transform="translate(-48.229 -190.178)" fill="url(#linear-gradient-7)"/>
      <path id="Path_109" data-name="Path 109" d="M101.421,332.844Q90.356,344,79.313,355.173a6.389,6.389,0,0,0-.151,8.89,6.166,6.166,0,0,0,8.767-.083l31.153-31.153Q110.206,332.851,101.421,332.844Z" transform="translate(-45.737 -196.583)" fill="url(#linear-gradient-8)"/>
      <path id="Path_110" data-name="Path 110" d="M292.35,146.691q4.442,4.381,8.822,8.822a6.366,6.366,0,0,1-.062,8.917q-11.07,11.148-22.165,22.271-11.075-2.25-22.223-4.46Q274.521,164.451,292.35,146.691Z" transform="translate(-151.631 -86.642)" fill="url(#linear-gradient-9)"/>
      <path id="Path_111" data-name="Path 111" d="M267.568,166.333q11.124-11.094,22.271-22.165a6.366,6.366,0,0,1,8.917-.062,6.236,6.236,0,0,1-.024,8.846L267.58,184.105Q267.58,175.205,267.568,166.333Z" transform="translate(-158.038 -84.058)" fill="url(#linear-gradient-10)"/>
      <path id="Path_112" data-name="Path 112" d="M157.429,276.658q4.411,4.411,8.884,8.761,27.064-26.853,53.986-53.847-4.425-4.466-8.871-8.913l-8.9.006q-22.55,22.53-45.051,45.109Q157.449,272.226,157.429,276.658Z" transform="translate(-92.985 -131.513)" fill="url(#linear-gradient-11)"/>
      <path id="Path_113" data-name="Path 113" d="M198.787,209.86q-4.446-4.446-8.912-8.871-26.993,26.922-53.847,53.986,4.35,4.473,8.761,8.884Z" transform="translate(-80.344 -118.713)" fill="url(#linear-gradient-12)"/>
      <path id="Path_114" data-name="Path 114" d="M387.15,93.757q-2.285,4.32-4.565,8.652,2.173,4.3,4.308,8.66a2.1,2.1,0,0,1-2.806,2.841q-4.206-2.273-8.469-4.5-4.307,2.274-8.628,4.545a2.067,2.067,0,0,1-2.8-2.8q2.271-4.32,4.545-8.628-2.232-4.262-4.5-8.469a2.1,2.1,0,0,1,2.841-2.806q4.356,2.136,8.66,4.308,4.332-2.28,8.652-4.565A2.032,2.032,0,0,1,387.15,93.757Z" transform="translate(-214.962 -53.594)" fill="url(#linear-gradient-13)"/>
      <path id="Path_115" data-name="Path 115" d="M277.383,84.89q-2.234,4.211-4.471,8.449,2.336,4.186,4.637,8.421a2.091,2.091,0,0,1-2.834,2.8q-4.38-2.185-8.785-4.356-4.355,2.241-8.7,4.473a2.1,2.1,0,0,1-2.888-2.75q2.218-4.24,4.431-8.454-2.362-4.177-4.761-8.305a2.039,2.039,0,0,1,2.8-2.726q4.466,2.11,8.913,4.229,4.362-2.223,8.735-4.458a2.076,2.076,0,0,1,2.92,2.675Z" transform="translate(-149.868 -48.411)" fill="url(#linear-gradient-13)"/>
      <path id="Path_116" data-name="Path 116" d="M393.979,199.893q-4.211,2.234-8.449,4.471-4.187-2.336-8.421-4.637a2.091,2.091,0,0,0-2.8,2.834q2.185,4.38,4.356,8.785-2.241,4.355-4.473,8.7a2.1,2.1,0,0,0,2.75,2.888q4.24-2.219,8.454-4.431,4.177,2.362,8.305,4.761a2.039,2.039,0,0,0,2.726-2.8q-2.11-4.466-4.229-8.913,2.223-4.362,4.458-8.735A2.076,2.076,0,0,0,393.979,199.893Z" transform="translate(-220.868 -117.817)" fill="url(#linear-gradient-15)"/>
    </g>
  </g>
</svg>
