<svg xmlns="http://www.w3.org/2000/svg" xmlns:xlink="http://www.w3.org/1999/xlink" width="189" height="189" viewBox="0 0 189 189">
  <defs>
    <linearGradient id="linear-gradient" x1="9.012" y1="15.644" x2="10.012" y2="15.644" gradientUnits="objectBoundingBox">
      <stop offset="0" stop-color="#81005f"/>
      <stop offset="0.012" stop-color="#81005f" stop-opacity="0.937"/>
      <stop offset="0.064" stop-color="#81005f" stop-opacity="0.694"/>
      <stop offset="0.121" stop-color="#81005f" stop-opacity="0.494"/>
      <stop offset="0.184" stop-color="#81005f" stop-opacity="0.341"/>
      <stop offset="0.255" stop-color="#81005f" stop-opacity="0.231"/>
      <stop offset="0.344" stop-color="#81005f" stop-opacity="0.169"/>
      <stop offset="0.498" stop-color="#81005f" stop-opacity="0.149"/>
    </linearGradient>
    <linearGradient id="linear-gradient-2" x1="10.835" y1="18.706" x2="11.836" y2="18.706" xlink:href="#linear-gradient"/>
    <linearGradient id="linear-gradient-3" x1="11.939" y1="20.569" x2="12.939" y2="20.569" xlink:href="#linear-gradient"/>
    <clipPath id="clip-Artboard_1">
      <rect width="189" height="189"/>
    </clipPath>
  </defs>
  <g id="Artboard_1" data-name="Artboard – 1" clip-path="url(#clip-Artboard_1)">
    <g id="Group_516" data-name="Group 516" transform="translate(-1371.047 -655.438)">
      <path id="Path_3033" data-name="Path 3033" d="M1463.945,841.3a92.874,92.874,0,1,1,65.712-27.219A92.319,92.319,0,0,1,1463.945,841.3Z" opacity="0.25" fill="url(#linear-gradient)"/>
      <path id="Path_3034" data-name="Path 3034" d="M1463.945,825.671a77.3,77.3,0,1,1,54.66-22.64A76.794,76.794,0,0,1,1463.945,825.671Z" fill="url(#linear-gradient-2)"/>
      <circle id="Ellipse_249" data-name="Ellipse 249" cx="70.124" cy="70.124" r="70.124" transform="translate(1393.821 678.246)" fill="url(#linear-gradient-3)"/>
      <g id="Group_441" data-name="Group 441" transform="translate(504.047 206.438)">
        <g id="up-arrow" transform="matrix(0.017, 1, -1, 0.017, 965.232, 516.8)" opacity="0.33">
          <g id="Group_269" data-name="Group 269" transform="translate(0 0)">
            <g id="Group_268" data-name="Group 268">
              <path id="Path_1506" data-name="Path 1506" d="M46.921,20.462,26.754,1.128a4.15,4.15,0,0,0-5.679-.008L.966,20.4a3.738,3.738,0,0,0,.008,5.024,4.154,4.154,0,0,0,5.68.429L23.907,9.31,41.251,25.9a4.15,4.15,0,0,0,5.679.008A3.747,3.747,0,0,0,46.921,20.462Z" fill="#fff"/>
            </g>
          </g>
        </g>
        <g id="Group_269-2" data-name="Group 269" transform="matrix(0.017, 1, -1, 0.017, 989.581, 516.8)">
          <g id="Group_268-2" data-name="Group 268" transform="translate(0)">
            <path id="Path_1506-2" data-name="Path 1506" d="M46.921,20.462,26.754,1.128a4.15,4.15,0,0,0-5.679-.008L.966,20.4a3.738,3.738,0,0,0,.008,5.024,4.154,4.154,0,0,0,5.68.429L23.907,9.31,41.251,25.9a4.15,4.15,0,0,0,5.679.008A3.747,3.747,0,0,0,46.921,20.462Z" fill="#fff"/>
          </g>
        </g>
      </g>
      <g id="Group_515" data-name="Group 515" transform="translate(504.047 206.438)">
        <g id="up-arrow-2" data-name="up-arrow" transform="matrix(0.017, 1, -1, 0.017, 965.232, 516.8)" opacity="0.33">
          <g id="Group_269-3" data-name="Group 269" transform="translate(0 0)">
            <g id="Group_268-3" data-name="Group 268">
              <path id="Path_1506-3" data-name="Path 1506" d="M46.921,20.462,26.754,1.128a4.15,4.15,0,0,0-5.679-.008L.966,20.4a3.738,3.738,0,0,0,.008,5.024,4.154,4.154,0,0,0,5.68.429L23.907,9.31,41.251,25.9a4.15,4.15,0,0,0,5.679.008A3.747,3.747,0,0,0,46.921,20.462Z" fill="#fff"/>
            </g>
          </g>
        </g>
        <g id="Group_269-4" data-name="Group 269" transform="matrix(0.017, 1, -1, 0.017, 989.581, 516.8)">
          <g id="Group_268-4" data-name="Group 268" transform="translate(0)">
            <path id="Path_1506-4" data-name="Path 1506" d="M46.921,20.462,26.754,1.128a4.15,4.15,0,0,0-5.679-.008L.966,20.4a3.738,3.738,0,0,0,.008,5.024,4.154,4.154,0,0,0,5.68.429L23.907,9.31,41.251,25.9a4.15,4.15,0,0,0,5.679.008A3.747,3.747,0,0,0,46.921,20.462Z" fill="#fff"/>
          </g>
        </g>
      </g>
    </g>
  </g>
</svg>
