<svg xmlns="http://www.w3.org/2000/svg" width="59.414" height="59.414" viewBox="0 0 59.414 59.414">
  <g id="twitter-circular-button" opacity="0.8">
    <g id="Group_9" data-name="Group 9">
      <path id="Path_60" data-name="Path 60" d="M31.724,11.295c0-.3-.005-.6-.019-.891a13.494,13.494,0,0,0,3.276-3.522,12.577,12.577,0,0,1-3.77,1.032A6.737,6.737,0,0,0,34.1,4.143,12.606,12.606,0,0,1,29.93,5.75a6.53,6.53,0,0,0-4.791-2.26,6.632,6.632,0,0,0-6.563,6.841,7.294,7.294,0,0,0,.17,1.585A18.482,18.482,0,0,1,5.217,4.44a7.268,7.268,0,0,0-.888,3.511,7.229,7.229,0,0,0,2.919,5.866,6.282,6.282,0,0,1-2.973-.91V13A6.972,6.972,0,0,0,9.54,19.9a6.216,6.216,0,0,1-1.728.235A6,6,0,0,1,6.578,20a6.671,6.671,0,0,0,6.13,4.885,12.668,12.668,0,0,1-8.151,2.968,12.5,12.5,0,0,1-1.566-.1,17.707,17.707,0,0,0,10.063,3.154C25.123,30.915,31.724,20.409,31.724,11.295Z" transform="translate(10.722 12.506)" fill="#fff"/>
      <path id="Path_61" data-name="Path 61" d="M59.414,29.707A29.707,29.707,0,1,0,29.707,59.414,29.707,29.707,0,0,0,59.414,29.707Zm-56.713,0A27.006,27.006,0,1,1,29.707,56.713,27.006,27.006,0,0,1,2.7,29.707Z" fill="#fff"/>
    </g>
  </g>
</svg>
